<?xml version="1.0" standalone="no"?>
<!DOCTYPE svg PUBLIC "-//W3C//DTD SVG 1.1//EN" "http://www.w3.org/Graphics/SVG/1.1/DTD/svg11.dtd" >
<svg>
<metadata>
Created by FontForge 20120731 at Sat Sep  3 23:58:10 2016
 By ,,,
(c) The Foundry. The digitally encoded machine readable outline data for producing the typefaces licensed to you is copyrighted 2002 by The Foundry, London. All Rights Reserved.
</metadata>
<defs>
<font id="FoundrySterling-Book" horiz-adv-x="593" >
  <font-face 
    font-family="FoundrySterling-Book"
    font-weight="400"
    font-stretch="normal"
    units-per-em="1000"
    panose-1="2 0 5 3 0 0 0 0 0 0"
    ascent="800"
    descent="-200"
    x-height="480"
    cap-height="667"
    bbox="-78 -227 1026 913"
    underline-thickness="50"
    underline-position="-100"
    unicode-range="U+0020-FFFD"
  />
<missing-glyph horiz-adv-x="236" 
 />
    <glyph glyph-name=".notdef" unicode="&#xfffd;" horiz-adv-x="236" 
 />
    <glyph glyph-name=".null" horiz-adv-x="0" 
 />
    <glyph glyph-name="nonmarkingreturn" horiz-adv-x="333" 
 />
    <glyph glyph-name="space" unicode=" " horiz-adv-x="240" 
 />
    <glyph glyph-name="exclam" unicode="!" horiz-adv-x="290" 
d="M182 667l-10 -505h-54l-13 505h77zM190 37q0 -19 -13 -32t-32 -13t-32 13t-13 32t13 32t32 13t32 -13t13 -32z" />
    <glyph glyph-name="quotedbl" unicode="&#x22;" horiz-adv-x="298" 
d="M243 667l-6 -229h-55l-7 229h68zM122 667l-6 -229h-55l-6 229h67z" />
    <glyph glyph-name="numbersign" unicode="#" horiz-adv-x="566" 
d="M496 517l-7 -53h-91l-17 -118h91l-7 -54h-91l-24 -165h-58l24 165h-99l-24 -165h-58l24 165h-89l7 54h89l17 118h-89l7 53h89l21 150h58l-21 -150h99l21 150h58l-21 -150h91zM340 464h-99l-17 -118h99z" />
    <glyph glyph-name="dollar" unicode="$" 
d="M498 185q0 -80 -48.5 -130t-128.5 -60v-95h-57v93q-108 7 -184 70l34 46q78 -54 150 -60v279q-90 37 -124 69q-42 42 -42 106q0 69 48.5 113.5t117.5 51.5v76h57v-74q105 -5 169 -69l-34 -39l-4 4q-5 4 -9.5 7t-12.5 8t-15.5 9.5t-18.5 9.5t-22 8t-25 5.5t-28 3.5v-246
q96 -39 124 -67q53 -49 53 -119zM264 394v219q-40 -7 -72 -35.5t-32 -73.5q0 -39 30 -67q25 -24 74 -43zM432 180q0 45 -35 78q-9 9 -21.5 17.5t-21 13t-19.5 10t-14 6.5v-253q48 9 79.5 41.5t31.5 86.5z" />
    <glyph glyph-name="percent" unicode="%" horiz-adv-x="731" 
d="M686 166q0 -84 -39 -131.5t-108 -47.5q-66 0 -105 45t-39 123q0 87 39 135.5t109 48.5q65 0 104 -47t39 -126zM624 670l-475 -706l-44 29l476 708zM336 507q0 -84 -39 -131.5t-108 -47.5q-66 0 -105 45t-39 123q0 87 39 135.5t109 48.5q65 0 104 -47t39 -126zM630 166
q0 60 -23 94t-64 34q-44 0 -68 -36t-24 -101q0 -59 23 -92t65 -33q43 0 67 35t24 99zM280 507q0 60 -23 94t-64 34q-44 0 -68 -36t-24 -101q0 -59 23 -92t65 -33q43 0 67 35t24 99z" />
    <glyph glyph-name="ampersand" unicode="&#x26;" horiz-adv-x="665" 
d="M617 0h-7q-51 0 -85 16t-70 55q-85 -83 -199 -83q-86 0 -143.5 56t-57.5 139q0 39 15.5 75.5t37.5 58.5q23 23 87 60q-27 37 -39 55.5t-23 45.5t-11 52q0 65 47.5 107t120.5 42q70 0 112.5 -37t42.5 -98q0 -37 -14 -67t-38.5 -50.5t-47 -34t-49.5 -26.5q-6 -3 -9 -4
l168 -200q21 24 41.5 79.5t20.5 120.5h58q0 -76 -26 -146t-53 -100q35 -40 61 -52.5t60 -12.5v-51zM380 540q0 41 -24.5 64.5t-66.5 23.5q-45 0 -74 -27t-29 -69q0 -26 14 -53.5t53 -75.5q68 31 97.5 62.5t29.5 74.5zM416 113l-187 224q-110 -54 -110 -151q0 -60 42 -100
t104 -39q84 2 151 66z" />
    <glyph glyph-name="quotesingle" unicode="'" horiz-adv-x="177" 
d="M122 667l-6 -229h-55l-6 229h67z" />
    <glyph glyph-name="parenleft" unicode="(" horiz-adv-x="361" 
d="M311 692q-165 -132 -165 -400q0 -127 36.5 -222t123.5 -169l-33 -40q-198 141 -198 436q0 137 50.5 253.5t151.5 181.5z" />
    <glyph glyph-name="parenright" unicode=")" horiz-adv-x="361" 
d="M286 297q0 -295 -198 -436l-33 40q87 74 123.5 169t36.5 222q0 268 -165 400l34 40q101 -65 151.5 -181.5t50.5 -253.5z" />
    <glyph glyph-name="asterisk" unicode="*" horiz-adv-x="446" 
d="M391 539l-123 -38l80 -109l-50 -35l-75 112l-75 -112l-50 35l80 109l-123 38l19 57l118 -46v117h62v-117l118 46z" />
    <glyph glyph-name="plus" unicode="+" 
d="M520 227h-197v-197h-53v197h-197v53h197v197h53v-197h197v-53z" />
    <glyph glyph-name="comma" unicode="," horiz-adv-x="236" 
d="M166 70q0 -111 -88 -199l-38 30q54 76 54 165v10h72v-6z" />
    <glyph glyph-name="hyphen" unicode="-" horiz-adv-x="490" 
d="M405 227h-320v53h320v-53z" />
    <glyph glyph-name="period" unicode="." horiz-adv-x="216" 
d="M153 37q0 -19 -13 -32t-32 -13t-32 13t-13 32t13 32t32 13t32 -13t13 -32z" />
    <glyph glyph-name="slash" unicode="/" horiz-adv-x="435" 
d="M398 667l-303 -811l-58 22l304 811z" />
    <glyph glyph-name="zero" unicode="0" 
d="M542 334q0 -163 -64 -254.5t-182 -91.5t-181.5 91.5t-63.5 257.5q0 159 64 251t178 92q119 0 184 -91.5t65 -254.5zM476 333q0 141 -45.5 217t-133.5 76q-180 0 -180 -297q0 -137 46 -212t132 -75q89 0 135 75.5t46 215.5z" />
    <glyph glyph-name="one" unicode="1" 
d="M361 0h-63v592l-164 -111l-34 47l208 139h53v-667z" />
    <glyph glyph-name="two" unicode="2" 
d="M493 0h-405v53q1 1 25 24t56.5 54t54.5 53q109 109 153 173.5t44 126.5q0 67 -37 103t-104 36q-37 0 -75.5 -15.5t-56 -27.5t-23.5 -18l-35 38q6 8 26.5 24.5t69.5 36t102 19.5q91 0 145 -51.5t54 -139.5q0 -41 -14 -80.5t-44.5 -80t-56 -69t-69.5 -72.5l-132 -131h322
v-56z" />
    <glyph glyph-name="three" unicode="3" 
d="M490 184q0 -90 -63 -143t-159 -53q-59 0 -107 17t-64 30t-25 24l34 41l2 -2q3 -3 7 -6t10 -7t14 -8.5t17 -9t20.5 -8.5t23.5 -7t27 -5t30 -2q77 0 122.5 36t45.5 99q0 49 -37 88q-27 27 -65.5 37t-110.5 10h-10v55h17q59 0 96.5 8.5t67.5 38.5q32 32 32 83q0 55 -38 89
t-104 34q-39 0 -77.5 -15.5t-54.5 -27t-23 -18.5l-34 40q4 6 25 22.5t69.5 36t99.5 19.5q93 0 147 -49t54 -129q0 -59 -35 -105t-96 -54q65 -6 103.5 -50.5t38.5 -108.5z" />
    <glyph glyph-name="four" unicode="4" 
d="M530 162h-91v-162h-62v162h-321v52l319 453h64v-451h91v-54zM377 216v362l-254 -362h254z" />
    <glyph glyph-name="five" unicode="5" 
d="M500 211q0 -101 -64 -162t-165 -61q-35 0 -66.5 6.5t-51.5 15t-36.5 19t-23.5 16.5t-9 9l32 43q65 -52 148 -52q79 0 125 43t46 118q0 68 -44 114t-125 46q-68 0 -119 -32l-30 19v314h357v-54h-295v-211q53 21 101 21q104 0 162 -58.5t58 -153.5z" />
    <glyph glyph-name="six" unicode="6" 
d="M527 218q0 -99 -60 -164.5t-157 -65.5q-53 0 -94 19.5t-67 51.5t-43 75t-23.5 87t-6.5 92q0 70 12 131t39.5 116t79 87.5t123.5 32.5q51 0 95.5 -16t61.5 -29t22 -20l-33 -42q-65 52 -138 52q-58 0 -99 -26.5t-62.5 -72.5t-31 -96t-9.5 -107q0 -12 0.5 -17.5t0.5 -9.5
q14 64 67 100.5t122 36.5q94 0 147.5 -60t53.5 -155zM466 215q0 73 -37.5 119t-108.5 46q-72 0 -117 -51t-45 -124q0 -69 43.5 -116.5t111.5 -47.5q70 0 111.5 51t41.5 123z" />
    <glyph glyph-name="seven" unicode="7" 
d="M521 616l-275 -616h-72l280 610h-374v57h441v-51z" />
    <glyph glyph-name="eight" unicode="8" 
d="M524 176q0 -85 -61 -136.5t-162 -51.5q-106 0 -169 50t-63 136q0 71 41 119.5t107 50.5q-61 12 -95 55t-34 102q0 79 57.5 129t149.5 50q94 0 152 -48t58 -127q0 -60 -33 -104.5t-92 -56.5q70 -8 107 -52.5t37 -115.5zM441 501q0 59 -39.5 94.5t-103.5 35.5
q-65 0 -105 -35.5t-40 -93.5t41.5 -96t103.5 -38q61 0 102 37.5t41 95.5zM458 179q0 65 -43.5 102.5t-117.5 37.5q-73 0 -117.5 -38t-44.5 -101q0 -67 44 -105t123 -38q72 0 114 38t42 104z" />
    <glyph glyph-name="nine" unicode="9" 
d="M517 355q0 -70 -12 -131t-39.5 -116t-79 -87.5t-123.5 -32.5q-51 0 -95.5 16t-61.5 29t-22 20l33 42q65 -52 138 -52q58 0 99 26.5t62.5 72.5t31 96t9.5 107q0 12 -0.5 17.5t-0.5 9.5q-14 -64 -67 -100.5t-122 -36.5q-94 0 -147.5 60t-53.5 155q0 99 60 164.5t157 65.5
q53 0 94 -19.5t67 -51.5t43 -75t23.5 -87t6.5 -92zM435 463q0 69 -43.5 116.5t-111.5 47.5q-70 0 -111.5 -51t-41.5 -123q0 -73 37.5 -119t108.5 -46q72 0 117 51t45 124z" />
    <glyph glyph-name="colon" unicode=":" horiz-adv-x="216" 
d="M153 447q0 -19 -13 -32t-32 -13t-32 13t-13 32t13 32t32 13t32 -13t13 -32zM153 37q0 -19 -13 -32t-32 -13t-32 13t-13 32t13 32t32 13t32 -13t13 -32z" />
    <glyph glyph-name="semicolon" unicode=";" horiz-adv-x="236" 
d="M175 447q0 -19 -13 -32t-32 -13t-32 13t-13 32t13 32t32 13t32 -13t13 -32zM166 70q0 -111 -88 -199l-38 30q54 76 54 165v10h72v-6z" />
    <glyph glyph-name="less" unicode="&#x3c;" 
d="M533 64l-22 -48l-451 218v40l450 218l23 -48l-400 -191z" />
    <glyph glyph-name="equal" unicode="=" 
d="M534 290h-475v53h475v-53zM534 164h-475v53h475v-53z" />
    <glyph glyph-name="greater" unicode="&#x3e;" 
d="M533 234l-451 -218l-22 48l400 189l-400 191l23 48l450 -218v-40z" />
    <glyph glyph-name="question" unicode="?" horiz-adv-x="493" 
d="M421 496q0 -77 -58 -135q-17 -17 -59 -43t-54 -38q-4 -4 -7 -8t-5.5 -9t-4 -8.5t-3 -11t-2 -11t-0.5 -14v-15.5v-19.5v-21.5h-54q-2 38 -2 56q0 39 3.5 55t19.5 32t54.5 43t57.5 46q45 45 45 102q0 56 -36.5 91.5t-94.5 35.5q-69 0 -138 -46l-28 44q4 5 25 17.5t66 27
t90 14.5q84 0 134.5 -50.5t50.5 -133.5zM246 37q0 -19 -13 -32t-32 -13t-32 13t-13 32t13 32t32 13t32 -13t13 -32z" />
    <glyph glyph-name="at" unicode="@" horiz-adv-x="776" 
d="M728 413q0 -108 -72.5 -174.5t-189.5 -66.5q-1 0 -21 2l8 46q-60 -48 -117 -48q-49 0 -79.5 34t-30.5 89q0 92 63.5 154.5t157.5 62.5q58 0 105 -20l-52 -272q75 6 125 56q51 51 51 136q0 94 -70.5 153.5t-182.5 59.5q-138 0 -228 -90.5t-90 -229.5q0 -120 76.5 -193
t195.5 -73q20 0 40 2t37 5.5t32.5 8t28.5 9.5t24 10t19.5 10t14 8.5t9.5 5.5l4 3l29 -41l-1 -1q-79 -63 -208 -72q-17 -1 -34 -1q-141 0 -232.5 89.5t-91.5 231.5q0 158 107.5 263t268.5 105q132 0 218 -74t86 -188zM489 460q-28 6 -42 6q-67 0 -116 -50t-49 -118
q0 -32 19 -53.5t48 -21.5q52 0 106 54z" />
    <glyph glyph-name="A" unicode="A" horiz-adv-x="581" 
d="M570 0h-68l-68 191h-291l-68 -191h-64l243 667h72zM415 246l-127 354l-126 -354h253z" />
    <glyph glyph-name="B" unicode="B" horiz-adv-x="556" 
d="M501 189q0 -78 -50 -128q-42 -42 -96 -51.5t-164 -9.5h-22h-83v667h168q63 0 102.5 -9t70.5 -40q52 -52 52 -129q0 -57 -31 -97t-82 -50q135 -21 135 -153zM414 492q0 52 -33 85q-8 8 -18 14t-18.5 10t-23 7t-22 4.5t-25 2t-23.5 0.5h-26.5h-24.5h-50v-251h66
q120 0 165 45q33 33 33 83zM436 187q0 49 -35 84q-10 10 -21.5 17t-28 11.5t-26.5 7.5t-32.5 4t-29 1h-33.5h-30h-50v-259h73q72 0 111 9t69 39q33 33 33 86z" />
    <glyph glyph-name="C" unicode="C" horiz-adv-x="606" 
d="M582 52q-6 -7 -29 -20.5t-75 -28.5t-109 -15q-136 0 -225 91.5t-89 248.5q0 162 93 257t231 95q53 0 99.5 -12t67 -23.5t28.5 -19.5l-29 -47q-8 6 -23.5 14t-55.5 18.5t-82 10.5q-112 0 -188 -77.5t-76 -207.5q0 -132 69.5 -210.5t187.5 -78.5q18 0 36.5 2t33 5.5t29 8
t25.5 9t20.5 9.5t15.5 8.5t11 6.5l4 2z" />
    <glyph glyph-name="D" unicode="D" horiz-adv-x="674" 
d="M619 337q0 -156 -96 -252q-54 -54 -117 -69.5t-169 -15.5h-151v667h128q118 0 187.5 -15.5t121.5 -67.5q96 -96 96 -247zM554 339q0 130 -79 209q-42 42 -96 54t-163 12h-66v-561h91q86 0 139.5 12.5t98.5 57.5q75 75 75 216z" />
    <glyph glyph-name="E" unicode="E" horiz-adv-x="498" 
d="M446 0h-360v667h352v-54h-289v-237h271v-53h-271v-267h297v-56z" />
    <glyph glyph-name="F" unicode="F" horiz-adv-x="469" 
d="M429 613h-279v-237h261v-53h-261v-323h-64v667h343v-54z" />
    <glyph glyph-name="G" unicode="G" horiz-adv-x="660" 
d="M592 44q-8 -7 -28 -17.5t-75 -25t-118 -14.5q-138 0 -227 91.5t-89 249.5q0 162 93 257t231 95q53 0 99.5 -12t67 -23.5t28.5 -19.5l-29 -47q-8 6 -23.5 14t-55.5 18.5t-82 10.5q-112 0 -188 -77.5t-76 -207.5q0 -132 69.5 -211.5t186.5 -79.5q20 0 39.5 1.5t34 4.5
t27.5 6.5t22 6.5t15.5 6t10.5 5l4 2v195h-153v52h216v-280z" />
    <glyph glyph-name="H" unicode="H" horiz-adv-x="637" 
d="M551 0h-64v324h-337v-324h-64v667h64v-289h337v289h64v-667z" />
    <glyph glyph-name="I" unicode="I" horiz-adv-x="236" 
d="M150 0h-64v667h64v-667z" />
    <glyph glyph-name="J" unicode="J" horiz-adv-x="358" 
d="M280 207v-22.5v-25t-1 -23t-2.5 -25t-4.5 -21.5t-7.5 -23.5t-11 -19t-15.5 -19.5q-40 -40 -104 -40q-33 0 -64 9t-44.5 17t-17.5 12l25 47q51 -29 90 -29q27 0 46 9.5t28 21.5t13.5 33t5 32.5t0.5 32.5v8v486h64v-460z" />
    <glyph glyph-name="K" unicode="K" horiz-adv-x="539" 
d="M529 0h-80l-300 319v-319h-63v667h63v-314l292 314h73l-301 -327z" />
    <glyph glyph-name="L" unicode="L" horiz-adv-x="470" 
d="M437 0h-351v667h64v-611h287v-56z" />
    <glyph glyph-name="M" unicode="M" horiz-adv-x="874" 
d="M796 0h-66l-63 574l-207 -574h-53l-209 574l-61 -574h-59l76 667h72l212 -575l207 575h73z" />
    <glyph glyph-name="N" unicode="N" horiz-adv-x="634" 
d="M548 0h-73l-332 573l2 -573h-59v667h70l335 -578l-2 578h59v-667z" />
    <glyph glyph-name="O" unicode="O" horiz-adv-x="701" 
d="M646 336q0 -154 -83 -251t-216 -97q-126 0 -209 96t-83 244q0 155 83.5 253t216.5 98q127 0 209 -96t82 -247zM578 340q0 126 -64.5 205t-165.5 79q-102 0 -163.5 -79t-61.5 -209q0 -128 64.5 -210.5t163.5 -82.5q104 0 165.5 81t61.5 216z" />
    <glyph glyph-name="P" unicode="P" horiz-adv-x="540" 
d="M489 475q0 -88 -53 -141q-28 -28 -64.5 -41t-64 -15t-83.5 -2h-16h-59v-276h-63v667h152q73 0 118.5 -9.5t78.5 -42.5q54 -54 54 -140zM425 476q0 65 -41 106q-16 16 -44 23.5t-47.5 8.5t-60.5 1h-83v-287h55q54 0 75.5 1t53 9.5t50.5 27.5q42 42 42 110z" />
    <glyph glyph-name="Q" unicode="Q" horiz-adv-x="701" 
d="M646 336q0 -138 -70.5 -236t-201.5 -107q61 -81 206 -81q14 0 27.5 1t21.5 2t9 1l7 -47q-36 -9 -89 -9q-174 0 -258 135q-97 12 -170 101.5t-73 231.5q0 155 83.5 253t216.5 98q127 0 209 -96t82 -247zM578 340q0 126 -64.5 205t-165.5 79q-102 0 -163.5 -79t-61.5 -209
q0 -128 64.5 -210.5t163.5 -82.5q104 0 165.5 81t61.5 216z" />
    <glyph glyph-name="R" unicode="R" horiz-adv-x="550" 
d="M524 0h-66l-76 171q-37 84 -67.5 105t-111.5 21h-54v-297h-63v667h137q57 0 84 -1.5t61 -13t58 -35.5q52 -52 52 -134q0 -71 -42 -114q-44 -46 -107 -52q29 -2 53 -26q20 -20 49 -83zM415 487q0 56 -33 89q-15 15 -31 23.5t-42 11.5t-35 3.5t-43 0.5h-82v-266h19h27h30
t27.5 1t29.5 2.5t25.5 5t26.5 8.5t22.5 12.5t21.5 16.5q37 37 37 92z" />
    <glyph glyph-name="S" unicode="S" horiz-adv-x="516" 
d="M455 183q0 -87 -55.5 -141.5t-156.5 -54.5q-109 0 -194 71l33 46q86 -60 157 -60q72 0 111 36.5t39 97.5q0 44 -34 78q-29 29 -121 68.5t-127 74.5q-40 40 -40 109q0 75 54.5 123t142.5 48q112 0 183 -71l-34 -40l-5 4q-6 5 -12 9.5t-15.5 11t-21 11.5t-25 10t-30.5 7.5
t-35 2.5q-62 0 -101 -32.5t-39 -82.5q0 -40 29 -69q26 -26 118.5 -64t126.5 -72q52 -52 52 -121z" />
    <glyph glyph-name="T" unicode="T" horiz-adv-x="532" 
d="M500 613h-202v-613h-64v613h-202v54h468v-54z" />
    <glyph glyph-name="U" unicode="U" horiz-adv-x="617" 
d="M541 346v-41.5v-41.5t-0.5 -36t-2.5 -36.5t-4.5 -31.5t-7 -32t-10.5 -26.5t-14.5 -27t-19.5 -22.5q-63 -63 -173 -63t-175 65q-28 28 -41 67.5t-15 70.5t-2 96v19v361h63v-422q0 -39 1 -58t11 -48t30 -49q47 -47 131 -47q77 0 120 43q33 33 39.5 74t6.5 154v353h63v-321z
" />
    <glyph glyph-name="V" unicode="V" 
d="M569 667l-235 -667h-80l-230 667h68l204 -612l211 612h62z" />
    <glyph glyph-name="W" unicode="W" horiz-adv-x="885" 
d="M846 667l-165 -667h-88l-149 617l-152 -617h-88l-165 667h67l143 -615l150 615h94l149 -615l143 615h61z" />
    <glyph glyph-name="X" unicode="X" horiz-adv-x="558" 
d="M531 0h-74l-181 296l-180 -296h-69l213 347l-199 320h75l162 -270l161 270h70l-197 -321z" />
    <glyph glyph-name="Y" unicode="Y" horiz-adv-x="541" 
d="M515 667l-213 -404v-263h-63v263l-213 404h70l178 -342l176 342h65z" />
    <glyph glyph-name="Z" unicode="Z" horiz-adv-x="543" 
d="M496 0h-450v47l368 566h-348v54h422v-49l-365 -562h373v-56z" />
    <glyph glyph-name="bracketleft" unicode="[" horiz-adv-x="323" 
d="M286 -122h-200v789h200v-53h-137v-683h137v-53z" />
    <glyph glyph-name="backslash" unicode="\" horiz-adv-x="435" 
d="M398 -122l-58 -22l-303 811l57 22z" />
    <glyph glyph-name="bracketright" unicode="]" horiz-adv-x="323" 
d="M237 -122h-200v53h137v683h-137v53h200v-789z" />
    <glyph glyph-name="asciicircum" unicode="^" 
d="M515 253h-65l-154 337l-154 -337h-64l196 414h46z" />
    <glyph glyph-name="underscore" unicode="_" horiz-adv-x="470" 
d="M472 -122h-474v53h474v-53z" />
    <glyph glyph-name="grave" unicode="`" horiz-adv-x="308" 
d="M271 585l-20 -39l-214 80l27 59z" />
    <glyph glyph-name="a" unicode="a" horiz-adv-x="464" 
d="M401 0h-55v36l-4 -2q-4 -3 -9.5 -6t-14.5 -7.5t-18.5 -8.5t-22 -8t-25.5 -7t-28.5 -5t-30.5 -2q-69 0 -111.5 40.5t-42.5 105.5q0 157 277 157h25v18q0 76 -24 101q-28 28 -91 28q-66 0 -133 -38l-25 42q5 5 22 15t58 22t85 12q84 0 130 -46q23 -23 30.5 -52t7.5 -86
v-309zM341 82v162h-27q-213 0 -213 -109q0 -39 26.5 -65.5t79.5 -26.5q15 0 31 2.5t28.5 6t26.5 9t21 8.5t17 8z" />
    <glyph glyph-name="b" unicode="b" horiz-adv-x="518" 
d="M475 248q0 -115 -68 -186.5t-175 -71.5q-75 0 -162 32v698h60v-271q54 43 134 43q96 0 153.5 -66.5t57.5 -177.5zM413 246q0 87 -42.5 140t-112.5 53q-13 0 -26.5 -2t-24 -4.5t-21 -7t-17.5 -8t-14.5 -8.5t-11.5 -7.5t-9 -5.5l-4 -4v-332q57 -17 104 -17q82 0 130.5 55.5
t48.5 147.5z" />
    <glyph glyph-name="c" unicode="c" horiz-adv-x="464" 
d="M434 38q-3 -4 -23 -14.5t-60 -22t-81 -11.5q-101 0 -164 65t-63 175q0 116 66.5 189t172.5 73q38 0 73.5 -11.5t51 -21t20.5 -14.5l-27 -42q-58 35 -121 35q-77 0 -125.5 -56.5t-48.5 -142.5q0 -87 47 -140t121 -53q16 0 31 2t28 5t23.5 6.5t20 7.5t15.5 7t11 6l6 3z" />
    <glyph glyph-name="d" unicode="d" horiz-adv-x="519" 
d="M449 0h-55v36q-7 -6 -21.5 -14.5t-49 -20t-69.5 -11.5q-95 0 -153 66.5t-58 175.5q0 115 66 187.5t170 72.5q64 0 109 -27v255h61v-720zM388 90v317q-56 32 -109 32q-78 0 -126 -57.5t-48 -151.5q0 -83 43.5 -135t111.5 -52q13 0 25 1.5t22 4t20 6.5t16.5 7t15 8t12 7.5
t10 7.5t7.5 5z" />
    <glyph glyph-name="e" unicode="e" horiz-adv-x="494" 
d="M451 260q0 -2 -1 -14t-1 -18h-344q0 -82 43 -132t122 -50q16 0 32 2t29 5.5t24.5 7t21 8t16 7.5t11.5 6l5 3l27 -46q-2 -3 -22 -14t-62.5 -23t-86.5 -12q-103 0 -162.5 68t-59.5 179q0 116 59.5 185.5t159.5 69.5q85 0 137 -61.5t52 -170.5zM390 279q0 63 -31.5 112.5
t-95.5 49.5t-108 -44t-48 -118h283z" />
    <glyph glyph-name="f" unicode="f" horiz-adv-x="352" 
d="M357 701l-24 -42q-30 20 -71 20q-42 0 -66 -24q-28 -28 -28 -98v-77h154v-49h-154v-431h-60v431h-85v49h85v77q0 92 45 137q38 38 103 38q64 0 101 -31z" />
    <glyph glyph-name="g" unicode="g" horiz-adv-x="519" 
d="M449 -7q0 -66 -9.5 -103t-35.5 -64q-53 -53 -156 -53q-48 0 -92 15t-61.5 26t-24.5 18l27 42l5 -4q6 -4 13 -7.5t17 -9t22 -10t26 -8.5t30.5 -6.5t33.5 -2.5q78 0 113 37q21 21 26 48t5 92v37q-74 -41 -140 -41q-90 0 -147.5 66.5t-57.5 170.5q0 111 67.5 183.5
t171.5 72.5q17 0 35 -2t33.5 -5.5t29 -7.5t26 -8.5t20.5 -7.5t15 -6.5t8 -3.5v-458zM388 98v318q-54 23 -109 23q-78 0 -126 -56t-48 -146q0 -83 41 -134t108 -51q14 0 29 2.5t27.5 6t23.5 8t20.5 9.5t16 9t11.5 7z" />
    <glyph glyph-name="h" unicode="h" horiz-adv-x="503" 
d="M440 0h-60v280q0 40 -1 56.5t-7 39t-20 36.5q-27 27 -75 27q-32 0 -68.5 -12t-56 -22t-22.5 -13v-392h-60v720h60v-274q4 4 23 14t57 21t73 11q73 0 110 -37q30 -30 38.5 -63t8.5 -103v-289z" />
    <glyph glyph-name="i" unicode="i" horiz-adv-x="200" 
d="M140 642q0 -16 -12 -28t-28 -12t-28 12t-12 28t12 28t28 12t28 -12t12 -28zM130 0h-60v480h60v-480z" />
    <glyph glyph-name="j" unicode="j" horiz-adv-x="200" 
d="M140 642q0 -16 -12 -28t-28 -12t-28 12t-12 28t12 28t28 12t28 -12t12 -28zM130 -56q0 -50 -8.5 -80t-31.5 -53q-38 -38 -102 -38q-35 0 -66 14l14 47q27 -9 51 -9q50 0 66.5 29.5t16.5 82.5v543h60v-536z" />
    <glyph glyph-name="k" unicode="k" horiz-adv-x="468" 
d="M453 0h-79l-244 254v-254h-60v720h60v-453l224 213h79l-236 -218z" />
    <glyph glyph-name="l" unicode="l" horiz-adv-x="200" 
d="M130 0h-60v720h60v-720z" />
    <glyph glyph-name="m" unicode="m" horiz-adv-x="789" 
d="M726 0h-60v286q0 98 -28 126q-25 25 -72 25q-71 0 -146 -44q9 -19 9 -114v-279h-60v263q0 51 -0.5 70.5t-6.5 43t-19 36.5q-25 25 -70 25q-31 0 -66.5 -11.5t-51.5 -20t-25 -14.5v-392h-60v480h57v-35q78 47 152 47q79 0 119 -56q91 56 174 56q67 0 107 -40
q23 -23 34 -57t12 -58t1 -83v-254z" />
    <glyph glyph-name="n" unicode="n" horiz-adv-x="503" 
d="M440 0h-60v280q0 40 -1 56.5t-7 39t-20 36.5q-27 27 -75 27q-32 0 -68.5 -12t-56 -22t-22.5 -13v-392h-60v480h57v-35q75 47 158 47q71 0 111 -40q27 -27 35.5 -60.5t8.5 -102.5v-289z" />
    <glyph glyph-name="o" unicode="o" horiz-adv-x="523" 
d="M480 236q0 -113 -59.5 -180.5t-160.5 -67.5q-99 0 -158 68.5t-59 183.5t59.5 183.5t162.5 68.5q98 0 156.5 -69t58.5 -187zM418 238q0 90 -44.5 146t-112.5 56q-72 0 -114 -54t-42 -144t44.5 -145.5t112.5 -55.5q74 0 115 53t41 144z" />
    <glyph glyph-name="p" unicode="p" horiz-adv-x="518" 
d="M475 250q0 -115 -66 -187.5t-170 -72.5q-66 0 -109 27v-230h-60v693h57v-33q60 45 138 45q94 0 152 -66.5t58 -175.5zM413 252q0 83 -43 135t-111 52q-31 0 -63 -11.5t-45 -20t-21 -15.5v-317q1 0 5.5 -3t9 -5.5t12 -6t16 -6.5t19 -5.5t23 -4t25.5 -1.5q78 0 125.5 57.5
t47.5 151.5z" />
    <glyph glyph-name="q" unicode="q" horiz-adv-x="518" 
d="M448 -213h-60v246q-54 -43 -134 -43q-96 0 -153.5 66.5t-57.5 177.5q0 115 68 186.5t175 71.5q75 0 162 -32v-673zM388 90v332q-57 17 -104 17q-82 0 -130.5 -55.5t-48.5 -147.5q0 -87 42.5 -140t112.5 -53q13 0 26.5 2t24 4.5t21 7t17.5 8t14.5 8.5t11.5 7.5t9 5.5z" />
    <glyph glyph-name="r" unicode="r" horiz-adv-x="349" 
d="M329 485l-14 -50q-21 3 -39 3q-24 0 -46 -6t-36.5 -15t-27 -20t-19.5 -19.5t-12 -15.5l-5 -8v-354h-60v480h57v-63q63 76 152 76q26 0 50 -8z" />
    <glyph glyph-name="s" unicode="s" horiz-adv-x="416" 
d="M366 131q0 -67 -46.5 -105t-126.5 -38q-41 0 -80.5 11.5t-58 21.5t-22.5 14l26 46q60 -40 131 -40q54 0 84.5 22.5t30.5 61.5q0 12 -3.5 22.5t-7.5 18t-14 15.5t-15.5 12.5t-20 11t-19.5 8.5t-21 8t-19 7q-29 12 -42 17.5t-34.5 18t-31 24.5t-17.5 32.5t-8 45.5
q0 57 45.5 91.5t114.5 34.5q38 0 74 -10.5t51.5 -19.5t19.5 -13l-24 -43q-60 34 -116 34q-43 0 -73 -20t-30 -52q0 -10 2.5 -19t5.5 -15.5t10.5 -13t12 -10.5t16.5 -9.5t17 -7.5t19.5 -8t19.5 -8q77 -31 102 -50q48 -36 48 -96z" />
    <glyph glyph-name="t" unicode="t" horiz-adv-x="370" 
d="M328 12q-46 -23 -95 -23q-65 0 -99 34q-19 19 -23.5 45t-4.5 79v284h-84v49h84v136h60v-136h154v-49h-154v-272v-11q0 -29 1 -43t7.5 -31t23 -24t43.5 -7q13 0 26 2t21.5 5t15.5 5.5t8 2.5z" />
    <glyph glyph-name="u" unicode="u" horiz-adv-x="503" 
d="M433 0h-55v38q-72 -48 -156 -48q-73 0 -116 43q-9 9 -15.5 19.5t-11.5 19t-8 23.5t-4.5 21.5t-2.5 24t-1 21.5v23.5v20.5v274h60v-286q0 -33 1 -49.5t7.5 -38t19.5 -34.5q29 -29 75 -29q15 0 30 2.5t29 6.5t26 8.5t23 9.5t18.5 9t13.5 7.5t7 3.5v390h60v-480z" />
    <glyph glyph-name="v" unicode="v" horiz-adv-x="494" 
d="M466 480l-188 -480h-71l-187 480h66l159 -417l159 417h62z" />
    <glyph glyph-name="w" unicode="w" horiz-adv-x="739" 
d="M700 480l-140 -480h-74l-121 427l-123 -427h-74l-134 480h61l113 -419l120 419h80l118 -419l115 419h59z" />
    <glyph glyph-name="x" unicode="x" horiz-adv-x="478" 
d="M446 0h-73l-141 204l-141 -204h-69l176 246l-164 234h74l129 -190l130 190h68l-163 -233z" />
    <glyph glyph-name="y" unicode="y" horiz-adv-x="483" 
d="M458 480l-190 -514q-38 -103 -84 -149q-44 -44 -118 -44q-35 0 -86 17l16 49q42 -12 68 -12q50 0 78 28q21 21 35 48.5t37 84.5l-198 492h66l165 -415l149 415h62z" />
    <glyph glyph-name="z" unicode="z" horiz-adv-x="463" 
d="M408 0h-366v47l282 382h-268v51h342v-48l-278 -379h288v-53z" />
    <glyph glyph-name="braceleft" unicode="{" horiz-adv-x="335" 
d="M298 -122h-51q-84 0 -118 35q-16 16 -23.5 40t-7.5 81v132q0 69 -13 82q-11 11 -34 11v52q23 0 34 11q13 13 13 82v107q0 57 7.5 81t23.5 40q34 35 118 35h51v-53h-35q-67 0 -84 -16t-17 -84v-107v-19v-19.5t-0.5 -16.5t-1.5 -17.5t-3 -13.5t-5.5 -13.5t-7.5 -9.5
q-8 -8 -22 -13q14 -5 22 -13q4 -4 7.5 -9.5t5.5 -13.5t3 -13.5t1.5 -17.5t0.5 -16.5v-19.5v-19v-132q0 -68 17 -84t84 -16h35v-53z" />
    <glyph glyph-name="bar" unicode="|" horiz-adv-x="254" 
d="M160 -122h-66v789h66v-789z" />
    <glyph glyph-name="braceright" unicode="}" horiz-adv-x="335" 
d="M284 259q-23 0 -34 -11q-13 -13 -13 -82v-132q0 -57 -7.5 -81t-23.5 -40q-34 -35 -118 -35h-51v53h35q67 0 84 16t17 84v132v19v19.5t0.5 16.5t1.5 17.5t3 13.5t5.5 13.5t7.5 9.5q9 8 22 13q-13 5 -22 13q-4 4 -7.5 9.5t-5.5 13.5t-3 13.5t-1.5 17.5t-0.5 16.5v19.5v19
v107q0 68 -17 84t-84 16h-35v53h51q84 0 118 -35q16 -16 23.5 -40t7.5 -81v-107q0 -69 13 -82q11 -11 34 -11v-52z" />
    <glyph glyph-name="asciitilde" unicode="~" 
d="M517 263q-53 -67 -117 -67q-40 0 -106 28.5t-97 28.5q-40 0 -75 -39l-46 31q49 67 122 67q41 0 105 -28.5t96 -28.5q36 0 73 41z" />
    <glyph glyph-name="nbspace" unicode="&#xa0;" horiz-adv-x="236" 
 />
    <glyph glyph-name="exclamdown" unicode="&#xa1;" horiz-adv-x="290" 
d="M190 447q0 -19 -13 -32t-32 -13t-32 13t-13 32t13 32t32 13t32 -13t13 -32zM185 -183h-77l10 505h54z" />
    <glyph glyph-name="cent" unicode="&#xa2;" 
d="M500 48q-3 -4 -20 -13t-48.5 -19.5t-61.5 -13.5v-102h-57v101q-88 7 -146 69.5t-58 169.5q0 112 59.5 181t144.5 78v82h57v-80q33 -3 63 -14.5t43 -19.5t17 -12l-27 -42q-48 29 -96 34v-389q43 5 104 35zM313 58v387q-60 -10 -101 -62.5t-41 -133.5q0 -83 41.5 -133.5
t100.5 -57.5z" />
    <glyph glyph-name="sterling" unicode="&#xa3;" 
d="M539 620l-31 -40q-58 45 -130 45t-112 -46t-40 -131q0 -36 7 -102h195v-55h-190q0 -3 1.5 -25t1.5 -35q0 -135 -62 -178h353v-53h-449v51q48 15 71.5 48.5t23.5 108.5q0 31 -4 83h-89v55h85q-10 72 -10 102q0 108 57.5 169.5t156.5 61.5q46 0 86 -13.5t56 -25.5t23 -20z
" />
    <glyph glyph-name="currency" unicode="&#xa4;" 
d="M526 53q-81 -65 -178 -65q-60 0 -107 23t-72.5 55t-42.5 71.5t-22 67.5t-5 47h-67v49h64q-1 19 -1 37q0 10 1 28h-64v49h67q0 15 5 41.5t22 66.5t43 74t73.5 58.5t107.5 24.5q41 0 80.5 -14t55.5 -24.5t22 -16.5l-30 -43q-62 44 -126 44q-48 0 -84.5 -20t-55.5 -47
t-30.5 -60t-14.5 -52.5t-3 -31.5h261v-49h-265q-1 -13 -1 -36q0 -12 1 -29h265v-49h-261q0 -12 3 -31.5t14.5 -52t30 -59t54 -46t81.5 -19.5q16 0 32.5 2.5t30.5 7t26 9.5t22.5 10.5t17 9.5t12.5 9l7 4z" />
    <glyph glyph-name="yen" unicode="&#xa5;" 
d="M535 667l-188 -322h126v-49h-146v-55h146v-49h-146v-192h-63v192h-145v49h145v55h-145v49h123l-184 322h71l167 -311l173 311h66z" />
    <glyph glyph-name="brokenbar" unicode="&#xa6;" horiz-adv-x="254" 
d="M160 364h-66v303h66v-303zM160 -122h-66v304h66v-304z" />
    <glyph glyph-name="section" unicode="&#xa7;" 
d="M486 278q0 -97 -110 -140q49 -26 70 -55.5t21 -70.5q0 -67 -49.5 -112.5t-131.5 -45.5q-102 0 -179 56l30 47q79 -45 143 -45q59 0 90.5 26.5t31.5 65.5q0 34 -23 57q-24 24 -105 57t-115 67q-39 39 -39 88q0 92 117 136q-94 48 -94 130q0 64 46.5 102t123.5 38
q88 0 149 -49l-28 -43q-6 4 -18.5 11.5t-42.5 17t-59 9.5q-50 0 -78 -22t-28 -56q0 -31 20 -51q22 -22 106.5 -59.5t110.5 -63.5q41 -41 41 -95zM421 267q0 34 -22 56q-25 25 -108 62q-51 -16 -79.5 -43t-28.5 -60q0 -29 23 -52q6 -6 16 -13t19 -12t24 -12t22 -10t23.5 -10
t18.5 -8q92 35 92 102z" />
    <glyph glyph-name="dieresis" unicode="&#xa8;" horiz-adv-x="316" 
d="M279 615q0 -19 -13 -32t-32 -13t-32 13t-13 32t13 32t32 13t32 -13t13 -32zM127 615q0 -19 -13 -32t-32 -13t-32 13t-13 32t13 32t32 13t32 -13t13 -32z" />
    <glyph glyph-name="copyright" unicode="&#xa9;" horiz-adv-x="787" 
d="M739 333q0 -143 -101.5 -244t-243.5 -101q-143 0 -244.5 101.5t-101.5 243.5q0 143 102 244.5t244 101.5q143 0 244 -103t101 -243zM682 333q0 121 -85 204.5t-203 83.5q-119 0 -204 -86t-85 -202q0 -118 85 -202.5t204 -84.5t203.5 84.5t84.5 202.5zM521 188
q-8 -11 -45 -26t-81 -15q-75 0 -123 49.5t-48 133.5q0 88 50 143.5t130 55.5q41 0 72 -14.5t41 -25.5l-26 -40q-44 29 -90 29q-53 0 -86.5 -40.5t-33.5 -101.5q0 -62 33 -99t84 -37q16 0 30 2t26 6.5t19 7.5t16 8l9 5z" />
    <glyph glyph-name="ordfeminine" unicode="&#xaa;" horiz-adv-x="410" 
d="M332 312h-47v24q-51 -32 -108 -32q-51 0 -83 30.5t-32 79.5q0 118 205 118h16v10q0 57 -17 74q-19 19 -65 19q-50 0 -97 -29l-21 34q5 5 18 12.5t43 17t63 9.5q63 0 97 -34q17 -17 22.5 -39.5t5.5 -65.5v-228zM283 375v116h-17q-153 0 -153 -77q0 -28 18.5 -47t55.5 -19
q44 0 96 27z" />
    <glyph glyph-name="guillemotleft" unicode="&#xab;" horiz-adv-x="465" 
d="M401 83l-44 -29l-138 193l138 189l44 -29l-97 -160zM245 83l-44 -29l-138 193l138 189l44 -29l-97 -160z" />
    <glyph glyph-name="logicalnot" unicode="&#xac;" 
d="M534 144h-58v136h-417v53h475v-189z" />
    <glyph glyph-name="registered" unicode="&#xae;" horiz-adv-x="536" 
d="M488 459q0 -91 -64 -155t-156 -64t-156 64t-64 155t64 155.5t156 64.5t156 -64.5t64 -155.5zM443 459q0 73 -50.5 123.5t-124.5 50.5t-124.5 -50.5t-50.5 -123.5t50.5 -123t124.5 -50t124.5 50t50.5 123zM372 341h-44l-30 62q-13 26 -20.5 31t-33.5 5h-11v-98h-42v241h59
q57 0 79 -20q21 -20 21 -51q0 -22 -12 -38t-37 -19q19 0 33 -31zM309 513q0 14 -10.5 21.5t-20 8.5t-26.5 1h-19v-67h9.5h11.5t11 0.5t11.5 1.5t10 2.5t9.5 4.5l6.5 6.5t5 9t1.5 11.5z" />
    <glyph glyph-name="macron" unicode="&#xaf;" horiz-adv-x="375" 
d="M337 588h-300v54h300v-54z" />
    <glyph glyph-name="degree" unicode="&#xb0;" 
d="M441 535q0 -60 -42 -102t-102 -42t-102.5 42t-42.5 102t42.5 102t102.5 42t102 -42t42 -102zM395 535q0 41 -28.5 69.5t-69.5 28.5t-70 -28.5t-29 -69.5t29 -69.5t70 -28.5t69.5 28.5t28.5 69.5z" />
    <glyph glyph-name="plusminus" unicode="&#xb1;" 
d="M520 307h-197v-208h-53v208h-197v53h197v212h53v-212h197v-53zM520 0h-447v53h447v-53z" />
    <glyph glyph-name="twosuperior" unicode="&#xb2;" horiz-adv-x="357" 
d="M283 333h-207v39q8 8 42.5 41.5t54.5 54.5t39 52t19 55q0 58 -57 58q-36 0 -73 -33l-25 31q8 14 37.5 31t65.5 17q46 0 73.5 -27.5t27.5 -73.5q0 -28 -15 -58t-29.5 -47t-43.5 -47l-46 -48h137v-45z" />
    <glyph glyph-name="threesuperior" unicode="&#xb3;" horiz-adv-x="357" 
d="M283 431q0 -48 -32.5 -76t-80.5 -28q-70 0 -104 44l27 30q36 -30 72 -30q33 0 51 15t18 41q0 21 -14 37q-20 21 -76 21h-14v44h17q82 0 82 54q0 22 -15 37t-42 15q-41 0 -71 -30l-28 28q6 8 17 17t34.5 19t49.5 10q47 0 75.5 -26t28.5 -69q0 -24 -16.5 -46.5t-43.5 -28.5
q29 -7 47 -28.5t18 -49.5z" />
    <glyph glyph-name="acute" unicode="&#xb4;" horiz-adv-x="308" 
d="M271 626l-214 -80l-20 39l207 100z" />
    <glyph glyph-name="mu" unicode="&#xb5;" horiz-adv-x="510" 
d="M440 0h-55v38q-72 -48 -156 -48q-55 0 -99 29v-141h-60v602h60v-286q0 -33 1 -49.5t7.5 -38t19.5 -34.5q29 -29 75 -29q15 0 30 2.5t29 6.5t26 8.5t23 9.5t18.5 9t13.5 7.5t7 3.5v390h60v-480z" />
    <glyph glyph-name="paragraph" unicode="&#xb6;" horiz-adv-x="584" 
d="M524 614h-61v-736h-53v736h-49v-736h-52v403h-14h-18t-19 0.5t-22.5 1.5t-22 3t-23.5 4.5t-22.5 7t-23 10t-20 12.5t-19.5 16q-54 54 -54 144q0 79 52 131q36 36 89 46t157 10h175v-53z" />
    <glyph glyph-name="periodcentered" unicode="&#xb7;" horiz-adv-x="216" 
d="M153 254q0 -19 -13 -32t-32 -13t-32 13t-13 32t13 32t32 13t32 -13t13 -32z" />
    <glyph glyph-name="cedilla" unicode="&#xb8;" horiz-adv-x="334" 
d="M252 -131q0 -40 -28.5 -63.5t-66.5 -23.5q-46 0 -69 20l16 36q19 -12 48 -12q27 0 38 12.5t11 28.5q0 18 -11.5 29.5t-30.5 11.5q-21 0 -40 -14l-26 17l18 89h43l-9 -53q7 5 25 5q37 0 59.5 -23t22.5 -60z" />
    <glyph glyph-name="onesuperior" unicode="&#xb9;" horiz-adv-x="357" 
d="M234 333h-52v277l-78 -50l-27 40l117 74h40v-341z" />
    <glyph glyph-name="ordmasculine" unicode="&#xba;" horiz-adv-x="409" 
d="M367 488q0 -84 -44.5 -134.5t-119.5 -50.5q-73 0 -117 51.5t-44 136.5q0 86 44 137t121 51q73 0 116.5 -51.5t43.5 -139.5zM317 490q0 65 -32.5 105.5t-80.5 40.5q-51 0 -81.5 -39.5t-30.5 -104.5t32 -105t81 -40q52 0 82 38.5t30 104.5z" />
    <glyph glyph-name="guillemotright" unicode="&#xbb;" horiz-adv-x="465" 
d="M402 247l-138 -193l-44 29l97 164l-97 160l44 29zM246 247l-138 -193l-44 29l97 164l-97 160l44 29z" />
    <glyph glyph-name="onequarter" unicode="&#xbc;" horiz-adv-x="731" 
d="M626 670l-476 -706l-43 29l476 708zM648 78h-47v-78h-51v78h-164v38l168 225h47v-218h47v-45zM255 333h-52v277l-78 -50l-27 40l117 74h40v-341zM550 123v142l-105 -142h105z" />
    <glyph glyph-name="onehalf" unicode="&#xbd;" horiz-adv-x="731" 
d="M676 0h-207v39q8 8 42.5 41.5t54.5 54.5t39 52t19 55q0 58 -57 58q-36 0 -73 -33l-25 31q8 14 37.5 31t65.5 17q46 0 73.5 -27.5t27.5 -73.5q0 -28 -15 -58t-29.5 -47t-43.5 -47l-46 -48h137v-45zM577 670l-476 -706l-43 29l476 708zM205 333h-52v277l-78 -50l-27 40
l117 74h40v-341z" />
    <glyph glyph-name="threequarters" unicode="&#xbe;" horiz-adv-x="731" 
d="M631 670l-476 -706l-43 29l476 708zM309 431q0 -48 -32.5 -76t-80.5 -28q-70 0 -104 44l27 30q36 -30 72 -30q33 0 51 15t18 41q0 21 -14 37q-20 21 -76 21h-14v44h17q82 0 82 54q0 22 -15 37t-42 15q-41 0 -71 -30l-28 28q6 8 17 17t34.5 19t49.5 10q47 0 75.5 -26
t28.5 -69q0 -24 -16.5 -46.5t-43.5 -28.5q29 -7 47 -28.5t18 -49.5zM653 78h-47v-78h-51v78h-164v38l168 225h47v-218h47v-45zM555 123v142l-105 -142h105z" />
    <glyph glyph-name="questiondown" unicode="&#xbf;" horiz-adv-x="493" 
d="M337 447q0 -19 -13 -32t-32 -13t-32 13t-13 32t13 32t32 13t32 -13t13 -32zM438 -137q-4 -5 -25 -17.5t-66 -27t-90 -14.5q-84 0 -134.5 50.5t-50.5 133.5q0 77 58 135q17 17 59 43t54 38q4 4 7 8t5.5 9t4 8.5t3 11t2 11t0.5 14v15.5v19.5v21.5h54q2 -38 2 -56
q0 -39 -3.5 -55t-19.5 -32t-54.5 -43t-57.5 -46q-45 -45 -45 -102q0 -56 36.5 -91.5t94.5 -35.5q69 0 138 46z" />
    <glyph glyph-name="Agrave" unicode="&#xc0;" horiz-adv-x="581" 
d="M570 0h-68l-68 191h-291l-68 -191h-64l243 667h72zM415 246l-127 354l-126 -354h253zM411 756l-20 -39l-214 80l27 59z" />
    <glyph glyph-name="Aacute" unicode="&#xc1;" horiz-adv-x="581" 
d="M570 0h-68l-68 191h-291l-68 -191h-64l243 667h72zM415 246l-127 354l-126 -354h253zM408 797l-214 -80l-20 39l207 100z" />
    <glyph glyph-name="Acircumflex" unicode="&#xc2;" horiz-adv-x="581" 
d="M570 0h-68l-68 191h-291l-68 -191h-64l243 667h72zM415 246l-127 354l-126 -354h253zM440 756l-26 -39l-126 69l-126 -69l-28 39l154 99z" />
    <glyph glyph-name="Atilde" unicode="&#xc3;" horiz-adv-x="581" 
d="M570 0h-68l-68 191h-291l-68 -191h-64l243 667h72zM415 246l-127 354l-126 -354h253zM442 763q-45 -45 -99 -45q-19 0 -55 11t-55 11q-30 0 -67 -23l-29 39q51 43 97 43q20 0 56 -11.5t54 -11.5q38 0 69 27z" />
    <glyph glyph-name="Adieresis" unicode="&#xc4;" horiz-adv-x="581" 
d="M570 0h-68l-68 191h-291l-68 -191h-64l243 667h72zM415 246l-127 354l-126 -354h253zM410 770q0 -19 -13 -32t-32 -13t-32 13t-13 32t13 32t32 13t32 -13t13 -32zM258 770q0 -19 -13 -32t-32 -13t-32 13t-13 32t13 32t32 13t32 -13t13 -32z" />
    <glyph glyph-name="Aring" unicode="&#xc5;" horiz-adv-x="581" 
d="M570 0h-68l-68 191h-291l-68 -191h-64l243 667h72zM415 246l-127 354l-126 -354h253zM386 815q0 -41 -29 -69.5t-69 -28.5t-69 28.5t-29 69.5t29 69.5t69 28.5q41 0 69.5 -29t28.5 -69zM345 815q0 24 -16.5 40.5t-40.5 16.5q-23 0 -39.5 -17t-16.5 -40t16.5 -39.5
t39.5 -16.5q24 0 40.5 16.5t16.5 39.5z" />
    <glyph glyph-name="AE" unicode="&#xc6;" horiz-adv-x="849" 
d="M792 0h-360v191h-238l-103 -191h-71l376 667h388v-54h-289v-237h271v-53h-271v-268h297v-55zM432 246v367l-209 -367h209z" />
    <glyph glyph-name="Ccedilla" unicode="&#xc7;" horiz-adv-x="606" 
d="M582 52q-8 -8 -30 -21t-74 -28t-109 -15l-9 -45q7 5 26 5q37 0 60.5 -24t23.5 -62q0 -42 -29.5 -65.5t-67.5 -23.5q-48 0 -71 20l16 37q19 -12 49 -12q28 0 39.5 13t11.5 29q0 19 -12 31t-31 12q-22 0 -42 -15l-26 18l17 85q-50 5 -96.5 28t-86 62.5t-63 103.5t-23.5 143
q0 162 93 257t231 95q53 0 99.5 -12t67 -23.5t28.5 -19.5l-29 -47q-8 6 -24 14t-55.5 18.5t-81.5 10.5q-112 0 -188 -77.5t-76 -207.5q0 -132 70 -210.5t187 -78.5q18 0 36.5 2t33 5.5t29 8t25.5 9t20.5 9.5t15.5 8.5t11 6.5l4 2z" />
    <glyph glyph-name="Egrave" unicode="&#xc8;" horiz-adv-x="498" 
d="M446 0h-360v667h352v-54h-289v-237h271v-53h-271v-267h297v-56zM375 756l-20 -39l-214 80l27 59z" />
    <glyph glyph-name="Eacute" unicode="&#xc9;" horiz-adv-x="498" 
d="M446 0h-360v667h352v-54h-289v-237h271v-53h-271v-267h297v-56zM379 797l-214 -80l-20 39l207 100z" />
    <glyph glyph-name="Ecircumflex" unicode="&#xca;" horiz-adv-x="498" 
d="M446 0h-360v667h352v-54h-289v-237h271v-53h-271v-267h297v-56zM409 756l-26 -39l-126 69l-126 -69l-28 39l154 99z" />
    <glyph glyph-name="Edieresis" unicode="&#xcb;" horiz-adv-x="498" 
d="M446 0h-360v667h352v-54h-289v-237h271v-53h-271v-267h297v-56zM371 770q0 -19 -13 -32t-32 -13t-32 13t-13 32t13 32t32 13t32 -13t13 -32zM219 770q0 -19 -13 -32t-32 -13t-32 13t-13 32t13 32t32 13t32 -13t13 -32z" />
    <glyph glyph-name="Igrave" unicode="&#xcc;" horiz-adv-x="236" 
d="M245 755l-20 -39l-214 80l27 59zM150 0h-64v667h64v-667z" />
    <glyph glyph-name="Iacute" unicode="&#xcd;" horiz-adv-x="236" 
d="M234 797l-214 -80l-20 39l207 100zM150 0h-64v667h64v-667z" />
    <glyph glyph-name="Icircumflex" unicode="&#xce;" horiz-adv-x="236" 
d="M270 756l-26 -39l-126 69l-126 -69l-28 39l154 99zM150 0h-64v667h64v-667z" />
    <glyph glyph-name="Idieresis" unicode="&#xcf;" horiz-adv-x="236" 
d="M239 770q0 -19 -13 -32t-32 -13t-32 13t-13 32t13 32t32 13t32 -13t13 -32zM87 770q0 -19 -13 -32t-32 -13t-32 13t-13 32t13 32t32 13t32 -13t13 -32zM150 0h-64v667h64v-667z" />
    <glyph glyph-name="Eth" unicode="&#xd0;" horiz-adv-x="684" 
d="M629 337q0 -156 -96 -252q-54 -54 -117 -69.5t-169 -15.5h-151v323h-100v53h100v291h128q118 0 187.5 -15.5t121.5 -67.5q96 -96 96 -247zM564 339q0 130 -79 209q-42 42 -96 54t-163 12h-66v-238h202v-53h-202v-270h91q86 0 139.5 12.5t98.5 57.5q75 75 75 216z" />
    <glyph glyph-name="Ntilde" unicode="&#xd1;" horiz-adv-x="634" 
d="M548 0h-73l-332 573l2 -573h-59v667h70l335 -578l-2 578h59v-667zM459 763q-45 -45 -99 -45q-19 0 -55 11t-55 11q-30 0 -67 -23l-29 39q51 43 97 43q20 0 56 -11.5t54 -11.5q37 0 69 27z" />
    <glyph glyph-name="Ograve" unicode="&#xd2;" horiz-adv-x="701" 
d="M646 336q0 -154 -83 -251t-216 -97q-126 0 -209 96t-83 244q0 155 83.5 253t216.5 98q127 0 209 -96t82 -247zM578 340q0 126 -64.5 205t-165.5 79q-102 0 -163.5 -79t-61.5 -209q0 -128 64.5 -210.5t163.5 -82.5q104 0 165.5 81t61.5 216zM465 755l-20 -39l-214 80
l27 59z" />
    <glyph glyph-name="Oacute" unicode="&#xd3;" horiz-adv-x="701" 
d="M646 336q0 -154 -83 -251t-216 -97q-126 0 -209 96t-83 244q0 155 83.5 253t216.5 98q127 0 209 -96t82 -247zM578 340q0 126 -64.5 205t-165.5 79q-102 0 -163.5 -79t-61.5 -209q0 -128 64.5 -210.5t163.5 -82.5q104 0 165.5 81t61.5 216zM456 797l-214 -80l-20 39
l207 100z" />
    <glyph glyph-name="Ocircumflex" unicode="&#xd4;" horiz-adv-x="701" 
d="M646 336q0 -154 -83 -251t-216 -97q-126 0 -209 96t-83 244q0 155 83.5 253t216.5 98q127 0 209 -96t82 -247zM578 340q0 126 -64.5 205t-165.5 79q-102 0 -163.5 -79t-61.5 -209q0 -128 64.5 -210.5t163.5 -82.5q104 0 165.5 81t61.5 216zM496 756l-26 -39l-126 69
l-126 -69l-28 39l154 99z" />
    <glyph glyph-name="Otilde" unicode="&#xd5;" horiz-adv-x="701" 
d="M646 336q0 -154 -83 -251t-216 -97q-126 0 -209 96t-83 244q0 155 83.5 253t216.5 98q127 0 209 -96t82 -247zM578 340q0 126 -64.5 205t-165.5 79q-102 0 -163.5 -79t-61.5 -209q0 -128 64.5 -210.5t163.5 -82.5q104 0 165.5 81t61.5 216zM500 763q-45 -45 -99 -45
q-19 0 -55 11t-55 11q-30 0 -67 -23l-29 39q51 43 97 43q20 0 56 -11.5t54 -11.5q38 0 69 27z" />
    <glyph glyph-name="Odieresis" unicode="&#xd6;" horiz-adv-x="701" 
d="M646 336q0 -154 -83 -251t-216 -97q-126 0 -209 96t-83 244q0 155 83.5 253t216.5 98q127 0 209 -96t82 -247zM578 340q0 126 -64.5 205t-165.5 79q-102 0 -163.5 -79t-61.5 -209q0 -128 64.5 -210.5t163.5 -82.5q104 0 165.5 81t61.5 216zM473 770q0 -19 -13 -32
t-32 -13t-32 13t-13 32t13 32t32 13t32 -13t13 -32zM321 770q0 -19 -13 -32t-32 -13t-32 13t-13 32t13 32t32 13t32 -13t13 -32z" />
    <glyph glyph-name="multiply" unicode="&#xd7;" 
d="M523 64l-37 -37l-190 189l-189 -189l-37 37l189 189l-189 190l37 37l189 -189l190 189l37 -37l-189 -190z" />
    <glyph glyph-name="Oslash" unicode="&#xd8;" horiz-adv-x="701" 
d="M646 336q0 -154 -83 -251t-216 -97q-35 0 -67.5 8.5t-46.5 15.5t-21 12l-53 -92l-46 27l54 96q-7 6 -14.5 13t-27 32.5t-33.5 54t-25.5 75.5t-11.5 98q0 155 83.5 253t216.5 98q37 0 72.5 -9.5t51 -18t21.5 -13.5l54 95l46 -27l-57 -101q103 -103 103 -269zM578 340
q0 60 -17 112.5t-29.5 70.5t-21.5 27l-269 -474l4 -2q4 -3 9 -5.5t12.5 -6t17 -7t20 -6.5t23 -4.5t25.5 -1.5q104 0 165 81t61 216zM470 586q-16 14 -49.5 26t-71.5 12q-102 0 -164 -79.5t-62 -208.5q0 -141 76 -223z" />
    <glyph glyph-name="Ugrave" unicode="&#xd9;" horiz-adv-x="617" 
d="M541 346v-41.5v-41.5t-0.5 -36t-2.5 -36.5t-4.5 -31.5t-7 -32t-10.5 -26.5t-14.5 -27t-19.5 -22.5q-63 -63 -173 -63t-175 65q-28 28 -41 67.5t-15 70.5t-2 96v19v361h63v-422q0 -39 1 -58t11 -48t30 -49q47 -47 131 -47q77 0 120 43q33 33 39.5 74t6.5 154v353h63v-321z
M417 756l-20 -39l-214 80l27 59z" />
    <glyph glyph-name="Uacute" unicode="&#xda;" horiz-adv-x="617" 
d="M541 346v-41.5v-41.5t-0.5 -36t-2.5 -36.5t-4.5 -31.5t-7 -32t-10.5 -26.5t-14.5 -27t-19.5 -22.5q-63 -63 -173 -63t-175 65q-28 28 -41 67.5t-15 70.5t-2 96v19v361h63v-422q0 -39 1 -58t11 -48t30 -49q47 -47 131 -47q77 0 120 43q33 33 39.5 74t6.5 154v353h63v-321z
M426 797l-214 -80l-20 39l207 100z" />
    <glyph glyph-name="Ucircumflex" unicode="&#xdb;" horiz-adv-x="617" 
d="M541 346v-41.5v-41.5t-0.5 -36t-2.5 -36.5t-4.5 -31.5t-7 -32t-10.5 -26.5t-14.5 -27t-19.5 -22.5q-63 -63 -173 -63t-175 65q-28 28 -41 67.5t-15 70.5t-2 96v19v361h63v-422q0 -39 1 -58t11 -48t30 -49q47 -47 131 -47q77 0 120 43q33 33 39.5 74t6.5 154v353h63v-321z
M455 756l-26 -39l-126 69l-126 -69l-28 39l154 99z" />
    <glyph glyph-name="Udieresis" unicode="&#xdc;" horiz-adv-x="617" 
d="M541 346v-41.5v-41.5t-0.5 -36t-2.5 -36.5t-4.5 -31.5t-7 -32t-10.5 -26.5t-14.5 -27t-19.5 -22.5q-63 -63 -173 -63t-175 65q-28 28 -41 67.5t-15 70.5t-2 96v19v361h63v-422q0 -39 1 -58t11 -48t30 -49q47 -47 131 -47q77 0 120 43q33 33 39.5 74t6.5 154v353h63v-321z
M430 770q0 -19 -13 -32t-32 -13t-32 13t-13 32t13 32t32 13t32 -13t13 -32zM278 770q0 -19 -13 -32t-32 -13t-32 13t-13 32t13 32t32 13t32 -13t13 -32z" />
    <glyph glyph-name="Yacute" unicode="&#xdd;" horiz-adv-x="541" 
d="M515 667l-213 -404v-263h-63v263l-213 404h70l178 -342l176 342h65zM384 797l-214 -80l-20 39l207 100z" />
    <glyph glyph-name="Thorn" unicode="&#xde;" horiz-adv-x="544" 
d="M489 345q0 -88 -53 -141q-28 -28 -64.5 -41t-64 -15t-83.5 -2h-16h-59v-146h-63v667h63v-130h89q73 0 118.5 -9.5t78.5 -42.5q54 -54 54 -140zM425 346q0 65 -41 106q-16 16 -44 23.5t-47.5 8.5t-60.5 1h-83v-287h55q54 0 75.5 1t53 9.5t50.5 27.5q42 42 42 110z" />
    <glyph glyph-name="germandbls" unicode="&#xdf;" horiz-adv-x="527" 
d="M484 154q0 -77 -52.5 -121.5t-127.5 -44.5q-16 0 -32.5 2t-28.5 5.5t-24 7.5t-19 7l-14 6l-6 4l22 49q50 -25 97 -25q53 0 86.5 28.5t33.5 76.5q0 45 -37 82q-12 12 -51 40t-56 45q-24 24 -24 52q0 22 17.5 46t38.5 42t38.5 48t17.5 63q0 50 -31.5 80.5t-81.5 30.5
q-51 0 -83 -32q-19 -19 -28 -54.5t-9 -110.5v-481h-60v445q0 55 0.5 73.5t5 58t16 63.5t31.5 44q48 48 131 48q76 0 125 -46t49 -118q0 -40 -16.5 -74t-36.5 -52t-36.5 -36t-16.5 -31t17 -30q7 -7 52.5 -40.5t69 -68t23.5 -82.5z" />
    <glyph glyph-name="agrave" unicode="&#xe0;" horiz-adv-x="464" 
d="M401 0h-55v36l-4 -2q-4 -3 -9.5 -6t-14.5 -7.5t-18.5 -8.5t-22 -8t-25.5 -7t-28.5 -5t-30.5 -2q-69 0 -111.5 40.5t-42.5 105.5q0 157 277 157h25v18q0 76 -24 101q-28 28 -91 28q-66 0 -133 -38l-25 42q5 5 22 15t58 22t85 12q84 0 130 -46q23 -23 30.5 -52t7.5 -86
v-309zM341 82v162h-27q-213 0 -213 -109q0 -39 26.5 -65.5t79.5 -26.5q15 0 31 2.5t28.5 6t26.5 9t21 8.5t17 8zM353 585l-20 -39l-214 80l27 59z" />
    <glyph glyph-name="aacute" unicode="&#xe1;" horiz-adv-x="464" 
d="M401 0h-55v36l-4 -2q-4 -3 -9.5 -6t-14.5 -7.5t-18.5 -8.5t-22 -8t-25.5 -7t-28.5 -5t-30.5 -2q-69 0 -111.5 40.5t-42.5 105.5q0 157 277 157h25v18q0 76 -24 101q-28 28 -91 28q-66 0 -133 -38l-25 42q5 5 22 15t58 22t85 12q84 0 130 -46q23 -23 30.5 -52t7.5 -86
v-309zM341 82v162h-27q-213 0 -213 -109q0 -39 26.5 -65.5t79.5 -26.5q15 0 31 2.5t28.5 6t26.5 9t21 8.5t17 8zM349 626l-214 -80l-20 39l207 100z" />
    <glyph glyph-name="acircumflex" unicode="&#xe2;" horiz-adv-x="464" 
d="M401 0h-55v36l-4 -2q-4 -3 -9.5 -6t-14.5 -7.5t-18.5 -8.5t-22 -8t-25.5 -7t-28.5 -5t-30.5 -2q-69 0 -111.5 40.5t-42.5 105.5q0 157 277 157h25v18q0 76 -24 101q-28 28 -91 28q-66 0 -133 -38l-25 42q5 5 22 15t58 22t85 12q84 0 130 -46q23 -23 30.5 -52t7.5 -86
v-309zM341 82v162h-27q-213 0 -213 -109q0 -39 26.5 -65.5t79.5 -26.5q15 0 31 2.5t28.5 6t26.5 9t21 8.5t17 8zM381 586l-26 -39l-126 69l-126 -69l-28 39l154 99z" />
    <glyph glyph-name="atilde" unicode="&#xe3;" horiz-adv-x="464" 
d="M401 0h-55v36l-4 -2q-4 -3 -9.5 -6t-14.5 -7.5t-18.5 -8.5t-22 -8t-25.5 -7t-28.5 -5t-30.5 -2q-69 0 -111.5 40.5t-42.5 105.5q0 157 277 157h25v18q0 76 -24 101q-28 28 -91 28q-66 0 -133 -38l-25 42q5 5 22 15t58 22t85 12q84 0 130 -46q23 -23 30.5 -52t7.5 -86
v-309zM341 82v162h-27q-213 0 -213 -109q0 -39 26.5 -65.5t79.5 -26.5q15 0 31 2.5t28.5 6t26.5 9t21 8.5t17 8zM389 618q-45 -45 -99 -45q-19 0 -55 11t-55 11q-30 0 -67 -23l-29 39q51 43 97 43q20 0 56 -11.5t54 -11.5q37 0 69 27z" />
    <glyph glyph-name="adieresis" unicode="&#xe4;" horiz-adv-x="464" 
d="M401 0h-55v36l-4 -2q-4 -3 -9.5 -6t-14.5 -7.5t-18.5 -8.5t-22 -8t-25.5 -7t-28.5 -5t-30.5 -2q-69 0 -111.5 40.5t-42.5 105.5q0 157 277 157h25v18q0 76 -24 101q-28 28 -91 28q-66 0 -133 -38l-25 42q5 5 22 15t58 22t85 12q84 0 130 -46q23 -23 30.5 -52t7.5 -86
v-309zM341 82v162h-27q-213 0 -213 -109q0 -39 26.5 -65.5t79.5 -26.5q15 0 31 2.5t28.5 6t26.5 9t21 8.5t17 8zM358 615q0 -19 -13 -32t-32 -13t-32 13t-13 32t13 32t32 13t32 -13t13 -32zM206 615q0 -19 -13 -32t-32 -13t-32 13t-13 32t13 32t32 13t32 -13t13 -32z" />
    <glyph glyph-name="aring" unicode="&#xe5;" horiz-adv-x="464" 
d="M401 0h-55v36l-4 -2q-4 -3 -9.5 -6t-14.5 -7.5t-18.5 -8.5t-22 -8t-25.5 -7t-28.5 -5t-30.5 -2q-69 0 -111.5 40.5t-42.5 105.5q0 157 277 157h25v18q0 76 -24 101q-28 28 -91 28q-66 0 -133 -38l-25 42q5 5 22 15t58 22t85 12q84 0 130 -46q23 -23 30.5 -52t7.5 -86
v-309zM341 82v162h-27q-213 0 -213 -109q0 -39 26.5 -65.5t79.5 -26.5q15 0 31 2.5t28.5 6t26.5 9t21 8.5t17 8zM330 631q0 -41 -29 -69.5t-69 -28.5t-69 28.5t-29 69.5t29 69.5t69 28.5q41 0 69.5 -29t28.5 -69zM289 631q0 24 -16.5 40.5t-40.5 16.5q-23 0 -39.5 -17
t-16.5 -40t16.5 -39.5t39.5 -16.5q24 0 40.5 16.5t16.5 39.5z" />
    <glyph glyph-name="ae" unicode="&#xe6;" horiz-adv-x="792" 
d="M749 260q0 -2 -1 -14t-1 -18h-344q0 -82 43 -132t122 -50q16 0 32 2t29 5.5t24.5 7t21 8t16 7.5t11.5 6l5 3l27 -46q-2 -3 -22 -14t-62.5 -23t-86.5 -12q-101 0 -160 64q-82 -63 -192 -63q-76 0 -122 37.5t-46 100.5q0 153 270 153h32v29q0 76 -24 101q-28 28 -91 28
q-66 0 -133 -38l-25 42q5 5 22 15t58 22t85 12q84 0 130 -46q16 -16 25 -37q56 82 168 82q85 0 137 -61.5t52 -170.5zM688 279q0 63 -31.5 112.5t-95.5 49.5t-108 -44t-48 -118h283zM373 94q-28 54 -28 125v12h-34q-206 0 -206 -102q0 -38 31 -60.5t78 -22.5q96 0 159 48z
" />
    <glyph glyph-name="ccedilla" unicode="&#xe7;" horiz-adv-x="464" 
d="M434 38q-3 -4 -23 -14.5t-60 -22t-80 -11.5l-8 -43q7 5 25 5q37 0 59.5 -23t22.5 -60q0 -40 -28.5 -63.5t-66.5 -23.5q-46 0 -69 20l16 36q19 -12 48 -12q27 0 38 12.5t11 28.5q0 18 -11.5 29.5t-30.5 11.5q-21 0 -40 -14l-26 17l17 82q-79 13 -132 73.5t-53 163.5
q0 116 66.5 189t172.5 73q38 0 74 -11.5t51 -21t20 -14.5l-27 -42q-58 35 -121 35q-77 0 -125.5 -56.5t-48.5 -142.5q0 -87 47 -140t121 -53q16 0 31 2t28 5t23.5 6.5t20 7.5t15.5 7t11 6l6 3z" />
    <glyph glyph-name="egrave" unicode="&#xe8;" horiz-adv-x="494" 
d="M451 260q0 -2 -1 -14t-1 -18h-344q0 -82 43 -132t122 -50q16 0 32 2t29 5.5t24.5 7t21 8t16 7.5t11.5 6l5 3l27 -46q-2 -3 -22 -14t-62.5 -23t-86.5 -12q-103 0 -162.5 68t-59.5 179q0 116 59.5 185.5t159.5 69.5q85 0 137 -61.5t52 -170.5zM390 279q0 63 -31.5 112.5
t-95.5 49.5t-108 -44t-48 -118h283zM368 585l-20 -39l-214 80l27 59z" />
    <glyph glyph-name="eacute" unicode="&#xe9;" horiz-adv-x="494" 
d="M451 260q0 -2 -1 -14t-1 -18h-344q0 -82 43 -132t122 -50q16 0 32 2t29 5.5t24.5 7t21 8t16 7.5t11.5 6l5 3l27 -46q-2 -3 -22 -14t-62.5 -23t-86.5 -12q-103 0 -162.5 68t-59.5 179q0 116 59.5 185.5t159.5 69.5q85 0 137 -61.5t52 -170.5zM390 279q0 63 -31.5 112.5
t-95.5 49.5t-108 -44t-48 -118h283zM376 626l-214 -80l-20 39l207 100z" />
    <glyph glyph-name="ecircumflex" unicode="&#xea;" horiz-adv-x="494" 
d="M451 260q0 -2 -1 -14t-1 -18h-344q0 -82 43 -132t122 -50q16 0 32 2t29 5.5t24.5 7t21 8t16 7.5t11.5 6l5 3l27 -46q-2 -3 -22 -14t-62.5 -23t-86.5 -12q-103 0 -162.5 68t-59.5 179q0 116 59.5 185.5t159.5 69.5q85 0 137 -61.5t52 -170.5zM390 279q0 63 -31.5 112.5
t-95.5 49.5t-108 -44t-48 -118h283zM409 586l-26 -39l-126 69l-126 -69l-28 39l154 99z" />
    <glyph glyph-name="edieresis" unicode="&#xeb;" horiz-adv-x="494" 
d="M451 260q0 -2 -1 -14t-1 -18h-344q0 -82 43 -132t122 -50q16 0 32 2t29 5.5t24.5 7t21 8t16 7.5t11.5 6l5 3l27 -46q-2 -3 -22 -14t-62.5 -23t-86.5 -12q-103 0 -162.5 68t-59.5 179q0 116 59.5 185.5t159.5 69.5q85 0 137 -61.5t52 -170.5zM390 279q0 63 -31.5 112.5
t-95.5 49.5t-108 -44t-48 -118h283zM379 615q0 -19 -13 -32t-32 -13t-32 13t-13 32t13 32t32 13t32 -13t13 -32zM227 615q0 -19 -13 -32t-32 -13t-32 13t-13 32t13 32t32 13t32 -13t13 -32z" />
    <glyph glyph-name="igrave" unicode="&#xec;" horiz-adv-x="200" 
d="M130 0h-60v480h60v-480zM218 585l-20 -39l-214 80l27 59z" />
    <glyph glyph-name="iacute" unicode="&#xed;" horiz-adv-x="200" 
d="M130 0h-60v480h60v-480zM219 626l-214 -80l-20 39l207 100z" />
    <glyph glyph-name="icircumflex" unicode="&#xee;" horiz-adv-x="200" 
d="M130 0h-60v480h60v-480zM254 586l-26 -39l-126 69l-126 -69l-28 39l154 99z" />
    <glyph glyph-name="idieresis" unicode="&#xef;" horiz-adv-x="200" 
d="M130 0h-60v480h60v-480zM223 615q0 -19 -13 -32t-32 -13t-32 13t-13 32t13 32t32 13t32 -13t13 -32zM71 615q0 -19 -13 -32t-32 -13t-32 13t-13 32t13 32t32 13t32 -13t13 -32z" />
    <glyph glyph-name="eth" unicode="&#xf0;" horiz-adv-x="506" 
d="M463 328q-1 -157 -57 -247t-154 -94q-91 -3 -147.5 65.5t-61.5 184.5q-4 113 49 182t147 72q70 3 152 -47q-11 108 -89 176l-123 -60l-25 45l97 47q-66 36 -173 40l4 52q144 -4 235 -60l93 45l25 -45l-74 -36q102 -96 102 -320zM399 319q0 19 -2 57q-30 27 -73.5 43.5
t-81.5 15.5q-65 -2 -102 -56t-34 -143t42.5 -141.5t101.5 -50.5q70 2 109.5 75t39.5 200z" />
    <glyph glyph-name="ntilde" unicode="&#xf1;" horiz-adv-x="503" 
d="M440 0h-60v280q0 40 -1 56.5t-7 39t-20 36.5q-27 27 -75 27q-32 0 -68.5 -12t-56 -22t-22.5 -13v-392h-60v480h57v-35q75 47 158 47q71 0 111 -40q27 -27 35.5 -60.5t8.5 -102.5v-289zM407 618q-45 -45 -99 -45q-19 0 -55 11t-55 11q-30 0 -67 -23l-29 39q51 43 97 43
q20 0 56 -11.5t54 -11.5q37 0 69 27z" />
    <glyph glyph-name="ograve" unicode="&#xf2;" horiz-adv-x="523" 
d="M480 236q0 -113 -59.5 -180.5t-160.5 -67.5q-99 0 -158 68.5t-59 183.5t59.5 183.5t162.5 68.5q98 0 156.5 -69t58.5 -187zM418 238q0 90 -44.5 146t-112.5 56q-72 0 -114 -54t-42 -144t44.5 -145.5t112.5 -55.5q74 0 115 53t41 144zM373 585l-20 -39l-214 80l27 59z" />
    <glyph glyph-name="oacute" unicode="&#xf3;" horiz-adv-x="523" 
d="M480 236q0 -113 -59.5 -180.5t-160.5 -67.5q-99 0 -158 68.5t-59 183.5t59.5 183.5t162.5 68.5q98 0 156.5 -69t58.5 -187zM418 238q0 90 -44.5 146t-112.5 56q-72 0 -114 -54t-42 -144t44.5 -145.5t112.5 -55.5q74 0 115 53t41 144zM381 626l-214 -80l-20 39l207 100z
" />
    <glyph glyph-name="ocircumflex" unicode="&#xf4;" horiz-adv-x="523" 
d="M480 236q0 -113 -59.5 -180.5t-160.5 -67.5q-99 0 -158 68.5t-59 183.5t59.5 183.5t162.5 68.5q98 0 156.5 -69t58.5 -187zM418 238q0 90 -44.5 146t-112.5 56q-72 0 -114 -54t-42 -144t44.5 -145.5t112.5 -55.5q74 0 115 53t41 144zM416 586l-26 -39l-126 69l-126 -69
l-28 39l154 99z" />
    <glyph glyph-name="otilde" unicode="&#xf5;" horiz-adv-x="523" 
d="M480 236q0 -113 -59.5 -180.5t-160.5 -67.5q-99 0 -158 68.5t-59 183.5t59.5 183.5t162.5 68.5q98 0 156.5 -69t58.5 -187zM418 238q0 90 -44.5 146t-112.5 56q-72 0 -114 -54t-42 -144t44.5 -145.5t112.5 -55.5q74 0 115 53t41 144zM416 618q-45 -45 -99 -45
q-19 0 -55 11t-55 11q-30 0 -67 -23l-29 39q51 43 97 43q20 0 56 -11.5t54 -11.5q38 0 69 27z" />
    <glyph glyph-name="odieresis" unicode="&#xf6;" horiz-adv-x="523" 
d="M480 236q0 -113 -59.5 -180.5t-160.5 -67.5q-99 0 -158 68.5t-59 183.5t59.5 183.5t162.5 68.5q98 0 156.5 -69t58.5 -187zM418 238q0 90 -44.5 146t-112.5 56q-72 0 -114 -54t-42 -144t44.5 -145.5t112.5 -55.5q74 0 115 53t41 144zM381 615q0 -19 -13 -32t-32 -13
t-32 13t-13 32t13 32t32 13t32 -13t13 -32zM229 615q0 -19 -13 -32t-32 -13t-32 13t-13 32t13 32t32 13t32 -13t13 -32z" />
    <glyph glyph-name="divide" unicode="&#xf7;" 
d="M342 464q0 -19 -13 -32t-32 -13t-32.5 13t-13.5 32t13 32t32 13t32.5 -13t13.5 -32zM534 227h-475v53h475v-53zM342 45q0 -19 -13 -32t-32 -13t-32.5 13t-13.5 32t13 32t32 13t32.5 -13t13.5 -32z" />
    <glyph glyph-name="oslash" unicode="&#xf8;" horiz-adv-x="523" 
d="M480 236q0 -113 -59.5 -180.5t-160.5 -67.5q-52 0 -94 21l-36 -61l-45 26l37 63q-79 69 -79 203q0 115 60 183.5t162 68.5q26 0 51.5 -6t38.5 -12.5t16 -9.5l38 63l44 -27l-40 -68q67 -67 67 -196zM418 238q0 86 -38 136l-185 -316q30 -17 67 -17q74 0 115 53t41 144z
M342 413q-31 27 -81 27q-72 0 -114 -54t-42 -144q0 -91 49 -151z" />
    <glyph glyph-name="ugrave" unicode="&#xf9;" horiz-adv-x="503" 
d="M433 0h-55v38q-72 -48 -156 -48q-73 0 -116 43q-9 9 -15.5 19.5t-11.5 19t-8 23.5t-4.5 21.5t-2.5 24t-1 21.5v23.5v20.5v274h60v-286q0 -33 1 -49.5t7.5 -38t19.5 -34.5q29 -29 75 -29q15 0 30 2.5t29 6.5t26 8.5t23 9.5t18.5 9t13.5 7.5t7 3.5v390h60v-480zM354 585
l-20 -39l-214 80l27 59z" />
    <glyph glyph-name="uacute" unicode="&#xfa;" horiz-adv-x="503" 
d="M433 0h-55v38q-72 -48 -156 -48q-73 0 -116 43q-9 9 -15.5 19.5t-11.5 19t-8 23.5t-4.5 21.5t-2.5 24t-1 21.5v23.5v20.5v274h60v-286q0 -33 1 -49.5t7.5 -38t19.5 -34.5q29 -29 75 -29q15 0 30 2.5t29 6.5t26 8.5t23 9.5t18.5 9t13.5 7.5t7 3.5v390h60v-480zM366 626
l-214 -80l-20 39l207 100z" />
    <glyph glyph-name="ucircumflex" unicode="&#xfb;" horiz-adv-x="503" 
d="M433 0h-55v38q-72 -48 -156 -48q-73 0 -116 43q-9 9 -15.5 19.5t-11.5 19t-8 23.5t-4.5 21.5t-2.5 24t-1 21.5v23.5v20.5v274h60v-286q0 -33 1 -49.5t7.5 -38t19.5 -34.5q29 -29 75 -29q15 0 30 2.5t29 6.5t26 8.5t23 9.5t18.5 9t13.5 7.5t7 3.5v390h60v-480zM403 586
l-26 -39l-126 69l-126 -69l-28 39l154 99z" />
    <glyph glyph-name="udieresis" unicode="&#xfc;" horiz-adv-x="503" 
d="M433 0h-55v38q-72 -48 -156 -48q-73 0 -116 43q-9 9 -15.5 19.5t-11.5 19t-8 23.5t-4.5 21.5t-2.5 24t-1 21.5v23.5v20.5v274h60v-286q0 -33 1 -49.5t7.5 -38t19.5 -34.5q29 -29 75 -29q15 0 30 2.5t29 6.5t26 8.5t23 9.5t18.5 9t13.5 7.5t7 3.5v390h60v-480zM371 615
q0 -19 -13 -32t-32 -13t-32 13t-13 32t13 32t32 13t32 -13t13 -32zM219 615q0 -19 -13 -32t-32 -13t-32 13t-13 32t13 32t32 13t32 -13t13 -32z" />
    <glyph glyph-name="yacute" unicode="&#xfd;" horiz-adv-x="483" 
d="M458 480l-190 -514q-38 -103 -84 -149q-44 -44 -118 -44q-35 0 -86 17l16 49q42 -12 68 -12q50 0 78 28q21 21 35 48.5t37 84.5l-198 492h66l165 -415l149 415h62zM355 626l-214 -80l-20 39l207 100z" />
    <glyph glyph-name="thorn" unicode="&#xfe;" horiz-adv-x="518" 
d="M475 250q0 -115 -66 -187.5t-170 -72.5q-66 0 -109 27v-230h-60v933h57v-273q60 45 138 45q94 0 152 -66.5t58 -175.5zM413 252q0 83 -43 135t-111 52q-31 0 -63 -11.5t-45 -20t-21 -15.5v-317q1 0 5.5 -3t9 -5.5t12 -6t16 -6.5t19 -5.5t23 -4t25.5 -1.5q78 0 125.5 57.5
t47.5 151.5z" />
    <glyph glyph-name="ydieresis" unicode="&#xff;" horiz-adv-x="483" 
d="M458 480l-190 -514q-38 -103 -84 -149q-44 -44 -118 -44q-35 0 -86 17l16 49q42 -12 68 -12q50 0 78 28q21 21 35 48.5t37 84.5l-198 492h66l165 -415l149 415h62zM366 615q0 -19 -13 -32t-32 -13t-32 13t-13 32t13 32t32 13t32 -13t13 -32zM214 615q0 -19 -13 -32
t-32 -13t-32 13t-13 32t13 32t32 13t32 -13t13 -32z" />
    <glyph glyph-name="dotlessi" unicode="&#x131;" horiz-adv-x="200" 
d="M130 0h-60v480h60v-480z" />
    <glyph glyph-name="Lslash" unicode="&#x141;" horiz-adv-x="495" 
d="M462 0h-351v288l-82 -62l-33 41l115 87v313h64v-276l121 90l32 -41l-153 -113v-271h287v-56z" />
    <glyph glyph-name="lslash" unicode="&#x142;" horiz-adv-x="289" 
d="M293 448l-123 -91v-357h-60v321l-82 -64l-32 40l114 86v337h60v-301l91 69z" />
    <glyph glyph-name="OE" unicode="&#x152;" horiz-adv-x="879" 
d="M822 0h-362q-117 0 -187 16t-122 67q-96 96 -96 247q0 156 96 252q54 54 117 69.5t169 15.5h377v-54h-289v-237h271v-53h-271v-268h297v-55zM462 53v561h-29q-86 0 -139.5 -12.5t-98.5 -57.5q-75 -75 -75 -216q0 -130 79 -209q42 -42 96 -54t163 -12h4z" />
    <glyph glyph-name="oe" unicode="&#x153;" horiz-adv-x="867" 
d="M824 260q0 -2 -1 -14t-1 -18h-344q0 -82 43 -132t122 -50q16 0 32 2t29 5.5t24.5 7t21 8t16 7.5t11.5 6l5 3l27 -46q-2 -3 -22 -14t-62.5 -23t-86.5 -12q-77 0 -123.5 34t-64.5 72l-5 -8q-5 -9 -12 -17.5t-17.5 -20.5t-25.5 -22.5t-33 -19.5t-43 -14.5t-53 -5.5
q-99 0 -158.5 68.5t-59.5 183.5t60 183.5t162 68.5q44 0 80 -13.5t57.5 -35.5t30.5 -34.5t15 -24.5l1 -2l3 5q3 5 6.5 11t10 15t15 17.5t19 17.5t24.5 17t30 14t36 9.5t42 3.5q85 0 137 -61.5t52 -170.5zM763 279q0 63 -31.5 112.5t-95.5 49.5t-108 -44t-48 -118h283z
M418 238q0 90 -44.5 146t-112.5 56q-72 0 -114 -54t-42 -144t44.5 -145.5t112.5 -55.5q74 0 115 53t41 144z" />
    <glyph glyph-name="Scaron" unicode="&#x160;" horiz-adv-x="516" 
d="M455 183q0 -87 -55.5 -141.5t-156.5 -54.5q-109 0 -194 71l33 46q86 -60 157 -60q72 0 111 36.5t39 97.5q0 44 -34 78q-29 29 -121 68.5t-127 74.5q-40 40 -40 109q0 75 54.5 123t142.5 48q112 0 183 -71l-34 -40l-5 4q-6 5 -12 9.5t-15.5 11t-21 11.5t-25 10t-30.5 7.5
t-35 2.5q-62 0 -101 -32.5t-39 -82.5q0 -40 29 -69q26 -26 118.5 -64t126.5 -72q52 -52 52 -121zM415 816l-154 -99l-152 99l26 39l126 -69l126 69z" />
    <glyph glyph-name="scaron" unicode="&#x161;" horiz-adv-x="416" 
d="M366 131q0 -67 -46.5 -105t-126.5 -38q-41 0 -80.5 11.5t-58 21.5t-22.5 14l26 46q60 -40 131 -40q54 0 84.5 22.5t30.5 61.5q0 12 -3.5 22.5t-7.5 18t-14 15.5t-15.5 12.5t-20 11t-19.5 8.5t-21 8t-19 7q-29 12 -42 17.5t-34.5 18t-31 24.5t-17.5 32.5t-8 45.5
q0 57 45.5 91.5t114.5 34.5q38 0 74 -10.5t51.5 -19.5t19.5 -13l-24 -43q-60 34 -116 34q-43 0 -73 -20t-30 -52q0 -10 2.5 -19t5.5 -15.5t10.5 -13t12 -10.5t16.5 -9.5t17 -7.5t19.5 -8t19.5 -8q77 -31 102 -50q48 -36 48 -96zM363 646l-154 -99l-152 99l26 39l126 -69
l126 69z" />
    <glyph glyph-name="Ydieresis" unicode="&#x178;" horiz-adv-x="541" 
d="M515 667l-213 -404v-263h-63v263l-213 404h70l178 -342l176 342h65zM395 770q0 -19 -13 -32t-32 -13t-32 13t-13 32t13 32t32 13t32 -13t13 -32zM243 770q0 -19 -13 -32t-32 -13t-32 13t-13 32t13 32t32 13t32 -13t13 -32z" />
    <glyph glyph-name="Zcaron" unicode="&#x17d;" horiz-adv-x="543" 
d="M496 0h-450v47l368 566h-348v54h422v-49l-365 -562h373v-56zM415 816l-154 -99l-152 99l26 39l126 -69l126 69z" />
    <glyph glyph-name="zcaron" unicode="&#x17e;" horiz-adv-x="463" 
d="M408 0h-366v47l282 382h-268v51h342v-48l-278 -379h288v-53zM383 646l-154 -99l-152 99l26 39l126 -69l126 69z" />
    <glyph glyph-name="florin" unicode="&#x192;" 
d="M562 656l-18 -48q-32 16 -72 16q-45 0 -68.5 -28t-38.5 -100l-32 -150h153l-11 -55h-154l-62 -305q-24 -115 -46 -153q-8 -13 -16 -21q-39 -39 -101 -39q-45 0 -96 22l19 48q40 -15 72 -15q37 0 57 20q26 26 48 136l3 15l61 292h-129l11 55h129l30 143q0 2 3 14.5t4 17
t3.5 16.5t5 18t6 17t7 18l8 16t10.5 16.5t12 13.5q43 43 108 43q48 0 94 -23z" />
    <glyph glyph-name="circumflex" unicode="&#x2c6;" horiz-adv-x="380" 
d="M343 586l-26 -39l-126 69l-126 -69l-28 39l154 99z" />
    <glyph glyph-name="caron" unicode="&#x2c7;" horiz-adv-x="380" 
d="M343 646l-154 -99l-152 99l26 39l126 -69l126 69z" />
    <glyph glyph-name="breve" unicode="&#x2d8;" horiz-adv-x="340" 
d="M303 677q-6 -58 -41.5 -91t-91.5 -33t-91.5 33t-41.5 91h51q10 -63 82 -63t82 63h51z" />
    <glyph glyph-name="dotaccent" unicode="&#x2d9;" horiz-adv-x="164" 
d="M127 615q0 -19 -13 -32t-32 -13t-32 13t-13 32t13 32t32 13t32 -13t13 -32z" />
    <glyph glyph-name="ring" unicode="&#x2da;" horiz-adv-x="271" 
d="M233 631q0 -41 -28.5 -69.5t-69.5 -28.5t-69.5 28.5t-28.5 69.5t29 69.5t69 28.5q41 0 69.5 -29t28.5 -69zM192 631q0 24 -16.5 40.5t-40.5 16.5q-23 0 -39.5 -17t-16.5 -40t16.5 -39.5t39.5 -16.5q24 0 40.5 16.5t16.5 39.5z" />
    <glyph glyph-name="ogonek" unicode="&#x2db;" horiz-adv-x="273" 
d="M236 -189q-43 -29 -98 -29q-46 0 -73.5 28.5t-27.5 77.5q0 61 61 103l49 -15q-3 -2 -12 -9t-13 -10.5t-11.5 -10t-10.5 -12t-7.5 -13t-6 -15.5t-1.5 -18q0 -29 16.5 -45.5t45.5 -16.5q12 0 25 3t21 6t16.5 7t9.5 4z" />
    <glyph glyph-name="tilde" unicode="&#x2dc;" horiz-adv-x="379" 
d="M342 618q-45 -45 -99 -45q-19 0 -55 11t-55 11q-30 0 -67 -23l-29 39q51 43 97 43q20 0 56 -11.5t54 -11.5q38 0 69 27z" />
    <glyph glyph-name="hungarumlaut" unicode="&#x2dd;" horiz-adv-x="320" 
d="M283 675l-69 -168l-48 17l53 176zM154 675l-68 -168l-49 17l53 176z" />
    <glyph glyph-name="pi" unicode="&#x3c0;" horiz-adv-x="669" 
d="M575 4q-25 -7 -48 -7q-41 0 -69 28q-26 26 -26 118v284h-206v-427h-60v427h-72v53h474v-53h-76v-273q0 -75 14 -89q15 -15 36 -15q17 0 33 2v-48z" />
    <glyph glyph-name="endash" unicode="&#x2013;" horiz-adv-x="644" 
d="M559 227h-474v53h474v-53z" />
    <glyph glyph-name="emdash" unicode="&#x2014;" horiz-adv-x="994" 
d="M909 227h-824v53h824v-53z" />
    <glyph glyph-name="quoteleft" unicode="&#x2018;" horiz-adv-x="197" 
d="M162 650q-55 -74 -55 -164h-72q0 59 27 111t59 84z" />
    <glyph glyph-name="quoteright" unicode="&#x2019;" horiz-adv-x="197" 
d="M162 667q0 -59 -27 -111t-59 -84l-41 31q55 74 55 164h72z" />
    <glyph glyph-name="quotesinglbase" unicode="&#x201a;" horiz-adv-x="197" 
d="M162 76q0 -59 -27 -111t-59 -84l-41 31q55 74 55 164h72z" />
    <glyph glyph-name="quotedblleft" unicode="&#x201c;" horiz-adv-x="329" 
d="M294 650q-55 -74 -55 -164h-72q0 59 27 111t59 84zM162 650q-55 -74 -55 -164h-72q0 59 27 111t59 84z" />
    <glyph glyph-name="quotedblright" unicode="&#x201d;" horiz-adv-x="329" 
d="M294 667q0 -59 -27 -111t-59 -84l-41 31q55 74 55 164h72zM162 667q0 -59 -27 -111t-59 -84l-41 31q55 74 55 164h72z" />
    <glyph glyph-name="quotedblbase" unicode="&#x201e;" horiz-adv-x="329" 
d="M294 76q0 -59 -27 -111t-59 -84l-41 31q55 74 55 164h72zM162 76q0 -59 -27 -111t-59 -84l-41 31q55 74 55 164h72z" />
    <glyph glyph-name="dagger" unicode="&#x2020;" horiz-adv-x="553" 
d="M483 363h-175l-6 -485h-50l-7 485h-175v57h174l-3 247h71l-3 -247h174v-57z" />
    <glyph glyph-name="daggerdbl" unicode="&#x2021;" horiz-adv-x="553" 
d="M483 166h-177l-4 -288h-50l-4 288h-178v56h177l-2 141h-175v57h174l-3 247h71l-3 -247h174v-57h-175l-1 -141h176v-56z" />
    <glyph glyph-name="bullet" unicode="&#x2022;" horiz-adv-x="548" 
d="M356 253q0 -35 -24 -58.5t-58 -23.5q-33 0 -57.5 24t-24.5 58q0 33 24.5 57.5t57.5 24.5q34 0 58 -24.5t24 -57.5z" />
    <glyph glyph-name="ellipsis" unicode="&#x2026;" horiz-adv-x="648" 
d="M585 37q0 -19 -13 -32t-32 -13t-32 13t-13 32t13 32t32 13t32 -13t13 -32zM369 37q0 -19 -13 -32t-32 -13t-32 13t-13 32t13 32t32 13t32 -13t13 -32zM153 37q0 -19 -13 -32t-32 -13t-32 13t-13 32t13 32t32 13t32 -13t13 -32z" />
    <glyph glyph-name="perthousand" unicode="&#x2030;" horiz-adv-x="1071" 
d="M1026 166q0 -84 -39 -131.5t-108 -47.5q-66 0 -105 45t-39 123q0 87 39 135.5t109 48.5q65 0 104 -47t39 -126zM686 166q0 -84 -39 -131.5t-108 -47.5q-66 0 -105 45t-39 123q0 87 39 135.5t109 48.5q65 0 104 -47t39 -126zM624 670l-475 -706l-44 29l476 708zM336 507
q0 -84 -39 -131.5t-108 -47.5q-66 0 -105 45t-39 123q0 87 39 135.5t109 48.5q65 0 104 -47t39 -126zM970 166q0 60 -23 94t-64 34q-44 0 -68 -36t-24 -101q0 -59 23 -92t65 -33q43 0 67 35t24 99zM630 166q0 60 -23 94t-64 34q-44 0 -68 -36t-24 -101q0 -59 23 -92t65 -33
q43 0 67 35t24 99zM280 507q0 60 -23 94t-64 34q-44 0 -68 -36t-24 -101q0 -59 23 -92t65 -33q43 0 67 35t24 99z" />
    <glyph glyph-name="guilsinglleft" unicode="&#x2039;" horiz-adv-x="309" 
d="M245 83l-44 -29l-138 193l138 189l44 -29l-97 -160z" />
    <glyph glyph-name="guilsinglright" unicode="&#x203a;" horiz-adv-x="309" 
d="M246 247l-138 -193l-44 29l97 164l-97 160l44 29z" />
    <glyph glyph-name="fraction" unicode="&#x2044;" 
d="M556 670l-476 -706l-43 29l476 708z" />
    <glyph glyph-name="trademark" unicode="&#x2122;" horiz-adv-x="727" 
d="M680 313h-52l-28 257l-93 -257h-40l-93 257l-27 -257h-49l40 354h51l101 -271l97 271h52zM283 625h-102v-312h-48v312h-103v42h253v-42z" />
    <glyph glyph-name="Omega" unicode="&#x2126;" horiz-adv-x="820" 
d="M726 0h-244v53q160 65 160 287q0 128 -64.5 208t-167.5 80q-104 0 -168.5 -80t-64.5 -208q0 -222 161 -287v-53h-244v55h155q-68 41 -103.5 117.5t-35.5 173.5q0 146 84 239.5t216 93.5q131 0 215 -93.5t84 -239.5q0 -95 -34.5 -172t-103.5 -119h155v-55z" />
    <glyph glyph-name="partialdiff" unicode="&#x2202;" horiz-adv-x="611" 
d="M517 356q0 -173 -59.5 -271t-163.5 -98q-91 0 -145.5 70.5t-54.5 186.5q0 114 55 181t151 67q78 0 147 -52q-10 110 -62 172.5t-131 62.5q-51 0 -119 -34l-26 46q68 45 149 45q117 0 188 -101.5t71 -274.5zM452 346v25q-9 9 -22.5 20t-53 28t-79.5 17q-64 0 -102 -53
t-38 -142t37.5 -143t99.5 -54q74 0 116 80t42 222z" />
    <glyph glyph-name="Delta" unicode="&#x2206;" horiz-adv-x="701" 
d="M607 0h-513l233 667h50zM527 53l-176 515l-179 -515h355z" />
    <glyph glyph-name="product" unicode="&#x220f;" horiz-adv-x="807" 
d="M713 614h-76v-614h-66v614h-335v-614h-66v614h-76v53h619v-53z" />
    <glyph glyph-name="summation" unicode="&#x2211;" horiz-adv-x="551" 
d="M457 0h-363v38l182 303l-182 283v43h363v-53h-284l170 -271l-177 -290h291v-53z" />
    <glyph glyph-name="minus" unicode="&#x2212;" 
d="M534 227h-475v53h475v-53z" />
    <glyph glyph-name="radical" unicode="&#x221a;" horiz-adv-x="802" 
d="M708 712l-267 -712h-54l-158 410l-118 -40l-17 50l170 59l152 -396l238 649z" />
    <glyph glyph-name="infinity" unicode="&#x221e;" horiz-adv-x="850" 
d="M756 276q0 -57 -41.5 -98.5t-99.5 -41.5q-42 0 -85.5 25t-104.5 83q-61 -58 -104.5 -83t-85.5 -25q-58 0 -99.5 41.5t-41.5 98.5q0 59 40 100t98 41q92 0 193 -105q101 105 193 105q58 0 98 -41t40 -100zM706 282q0 36 -26 62t-65 26q-31 0 -61.5 -15t-48 -30.5
t-48.5 -46.5q29 -27 47 -41.5t50 -31t61 -16.5q37 0 64 27.5t27 65.5zM393 278q-31 31 -48.5 46.5t-48 30.5t-61.5 15q-39 0 -65 -26t-26 -62q0 -38 27 -65.5t64 -27.5q29 0 61 16.5t50 31t47 41.5z" />
    <glyph glyph-name="integral" unicode="&#x222b;" horiz-adv-x="628" 
d="M534 706l-21 -48q-45 18 -74 18q-43 0 -65 -22q-30 -30 -30 -100v-612q0 -86 -46 -132q-37 -37 -102 -37q-59 0 -102 26l21 48q45 -18 74 -18q43 0 65 22q30 30 30 100v612q0 86 46 132q37 37 102 37q59 0 102 -26z" />
    <glyph glyph-name="approxequal" unicode="&#x2248;" 
d="M517 333q-53 -67 -117 -67q-40 0 -106 28.5t-97 28.5q-40 0 -75 -39l-46 31q49 67 122 67q41 0 105 -28.5t96 -28.5q36 0 73 41zM517 193q-53 -67 -117 -67q-40 0 -106 28.5t-97 28.5q-40 0 -75 -39l-46 31q49 67 122 67q41 0 105 -28.5t96 -28.5q36 0 73 41z" />
    <glyph glyph-name="notequal" unicode="&#x2260;" 
d="M534 164h-259l-86 -135l-46 28l69 107h-153v53h185l45 73h-230v53h263l81 128l44 -28l-63 -100h150v-53h-183l-45 -73h228v-53z" />
    <glyph glyph-name="lessequal" unicode="&#x2264;" 
d="M533 146l-22 -48l-451 218v40l450 218l23 -48l-400 -191zM533 0h-473v53h473v-53z" />
    <glyph glyph-name="greaterequal" unicode="&#x2265;" 
d="M533 316l-451 -218l-22 48l400 189l-400 191l23 48l450 -218v-40zM533 0h-473v53h473v-53z" />
    <glyph glyph-name="lozenge" unicode="&#x25ca;" horiz-adv-x="666" 
d="M572 336l-215 -336h-48l-215 336l215 331h46zM506 336l-174 264l-170 -264l172 -276z" />
    <glyph glyph-name="fi" unicode="&#xfb01;" horiz-adv-x="496" 
d="M426 0h-60v431h-198v-431h-60v431h-85v49h85v83q0 86 45 131q38 38 103 38q64 0 101 -31l-24 -42q-30 20 -71 20q-42 0 -66 -24q-28 -28 -28 -98v-77h258v-480z" />
    <glyph glyph-name="fl" unicode="&#xfb02;" horiz-adv-x="496" 
d="M426 0h-60v431h-198v-431h-60v431h-85v49h85v83q0 86 45 131q38 38 103 38q47 0 77 -18l-19 -46q-28 11 -53 11q-41 0 -65 -24q-28 -28 -28 -98v-77h198v240h60v-720z" />
    <glyph glyph-name="NUL" horiz-adv-x="508" 
 />
    <glyph glyph-name="HT" horiz-adv-x="508" 
 />
    <glyph glyph-name="LF" horiz-adv-x="508" 
 />
    <glyph glyph-name="CR" horiz-adv-x="508" 
 />
    <glyph glyph-name="DLE" horiz-adv-x="508" 
 />
    <glyph glyph-name="DC1" horiz-adv-x="508" 
 />
    <glyph glyph-name="DC2" horiz-adv-x="1008" 
 />
    <glyph glyph-name="DC3" horiz-adv-x="508" 
 />
    <glyph glyph-name="DC4" horiz-adv-x="508" 
 />
    <glyph glyph-name="RS" horiz-adv-x="508" 
 />
    <glyph glyph-name="US" horiz-adv-x="508" 
 />
    <glyph glyph-name="DEL" horiz-adv-x="508" 
 />
    <glyph glyph-name="apple" horiz-adv-x="908" 
d="M860 388q0 -167 -117.5 -284.5t-288.5 -117.5q-170 0 -288 117.5t-118 284.5q0 168 118.5 285.5t287.5 117.5q171 0 288.5 -118t117.5 -285zM795 388q0 139 -100 240t-241 101q-140 0 -241 -100.5t-101 -239.5q0 -125 77.5 -213t180.5 -115v252h-85v49h85v87q0 92 45 137
q38 38 103 38q64 0 101 -31l-24 -42q-30 20 -71 20q-42 0 -66 -24q-28 -28 -28 -98v-87h154v-49h-154v-262q12 -2 24 -2q140 0 240.5 100.5t100.5 238.5z" />
    <glyph glyph-name="summmation" horiz-adv-x="341" 
 />
  </font>
</defs>
</svg>
